<svg id="Layer_5" enable-background="new 0 0 64 64" height="512" viewBox="0 0 64 64" width="512" xmlns="http://www.w3.org/2000/svg"><g><g><g><path d="m33.76 12 2.94 6h-2.7-8-10-8-4c-1.1 0-2-.9-2-2v-2c0-1.1.9-2 2-2z" fill="#fc6e51"/></g><g><path d="m34 52v4h-26c-2.21 0-4-1.79-4-4v-34h4v17 16c0 .55.45 1 1 1z" fill="#ff826e"/></g><g><path d="m38 20.66v11.34h-2c-1.1 0-2 .9-2 2v-16h2.7l1.3 2.65z" fill="#ff826e"/></g><g><path d="m8 18v33c0 .552.448 1 1 1h7 10 8v-2-32z" fill="#e6e9ed"/></g><g><path d="m26 35v2c0 1.1-.9 2-2 2h-6c-1.1 0-2-.9-2-2v-2z" fill="#ffeaa7"/></g><g><path d="m26 18v2c0 1.1-.9 2-2 2h-6c-1.1 0-2-.9-2-2v-2z" fill="#ffeaa7"/></g><g><path d="m62 36v22c0 2.21-1.79 4-4 4h-20c-2.21 0-4-1.79-4-4v-2-4-16z" fill="#ecc19c"/></g><g><path d="m62 34v2h-28v-1-1c0-1.1.9-2 2-2h2 5.55 5.45 1 10c1.1 0 2 .9 2 2z" fill="#cf9e76"/></g><g><path d="m60 26v6h-10v-9.27-20.73h10v4 4 4 4 4z" fill="#e6e9ed"/></g><g><path d="m41.85 6.01-4.67 2.34-4.18 2.09v-6.73c0-.46.18-.89.5-1.21s.75-.5 1.21-.5c.84 0 1.66.25 2.36.73z" fill="#aab2bd"/></g><g><path d="m56 46.24c0 1.13-.45 2.21-1.24 3l-6.76 6.76-6.76-6.76c-.79-.79-1.24-1.87-1.24-3 0-1.17.48-2.23 1.24-3 .77-.76 1.83-1.24 3-1.24 1.13 0 2.21.45 3 1.24l.76.76.76-.76c.79-.79 1.87-1.24 3-1.24 1.17 0 2.23.48 3 1.24.76.77 1.24 1.83 1.24 3z" fill="#ff826e"/></g><g><path d="m50 22.73v9.27h-1l-11.82-23.65 4.67-2.34z" fill="#69d6f4"/></g><g><path d="m37.18 8.35 11.82 23.65h-5.45l-5.55-11.34v-.01l-1.3-2.65-2.94-6-.76-1.56z" fill="#b4dd7f"/></g></g><g><path d="m61 31.184v-30.184h-12v17.397l-6.363-13.063-5.005-3.429c-.865-.592-1.876-.905-2.925-.905-.723 0-1.402.281-1.914.793s-.793 1.191-.793 1.914v6.963l.162.33h-28.162c-1.654 0-3 1.346-3 3v2c0 1.302.839 2.402 2 2.816v33.184c0 2.757 2.243 5 5 5h25v1c0 2.757 2.243 5 5 5h20c2.757 0 5-2.243 5-5v-24c0-1.302-.839-2.402-2-2.816zm-46-12.184v1c0 1.654 1.346 3 3 3h6c1.654 0 3-1.346 3-3v-1h6v15h-24v-15zm2 0h8v1c0 .552-.448 1-1 1h-6c-.552 0-1-.448-1-1zm19.727-9.308 10.655 21.308h-3.205l-9.843-20.111zm5.223 21.308h-2.95v-6.027zm-4.95-10.114v10.114h-1c-.352 0-.686.072-1 .184v-12.184h1.077zm-20 15.114h8v1c0 .552-.448 1-1 1h-6c-.552 0-1-.448-1-1zm-8 0h6v1c0 1.654 1.346 3 3 3h6c1.654 0 3-1.346 3-3v-1h6v15h-24zm26-2c0-.552.448-1 1-1h24c.552 0 1 .448 1 1v1h-26zm24-31v2h-6v2h6v2h-4v2h4v2h-6v2h6v2h-4v2h4v2h-6v2h6v2h-4v2h4v4h-8v-28zm-10 19.965v6.798l-10.484-20.966 2.881-1.441zm-14.793-19.758c.134-.134.312-.207.5-.207.644 0 1.264.192 1.794.556l3.386 2.319-5.887 2.945v-5.113c0-.188.073-.366.207-.5zm-31.207 10.793c0-.552.448-1 1-1h29.14l1.958 4h-31.098c-.552 0-1-.448-1-1zm5 41c-1.654 0-3-1.346-3-3v-33h2v32c0 1.103.897 2 2 2h24v2zm50 6h-20c-1.654 0-3-1.346-3-3v-21h26v21c0 1.654-1.346 3-3 3z"/><path d="m51.758 41c-1.4 0-2.717.545-3.707 1.535l-.051.051-.051-.051c-.99-.99-2.306-1.535-3.707-1.535-2.89 0-5.242 2.352-5.242 5.242 0 1.4.545 2.717 1.535 3.707l7.465 7.465 7.465-7.465c.99-.99 1.535-2.307 1.535-3.707 0-2.89-2.352-5.242-5.242-5.242zm2.293 7.535-6.051 6.051-6.051-6.051c-.612-.612-.949-1.427-.949-2.293 0-1.788 1.454-3.242 3.242-3.242.866 0 1.681.337 2.293.949l1.465 1.465 1.465-1.465c.612-.612 1.427-.949 2.293-.949 1.788 0 3.242 1.454 3.242 3.242 0 .866-.337 1.681-.949 2.293z"/></g></g></svg>