<svg height="480pt" viewBox="0 0 480 480.34526" width="480pt" xmlns="http://www.w3.org/2000/svg"><path d="m280.171875 360.015625h176c8.839844 0 16 7.164063 16 16s-7.160156 16-16 16h-176c-8.835937 0-16-7.164063-16-16s7.164063-16 16-16zm0 0" fill="#fcbc04"/><path d="m40.171875 472.015625h-16l16-80h32zm0 0" fill="#d0d8da"/><path d="m168.171875 472.015625h16l-16-80h-32zm0 0" fill="#d0d8da"/><path d="m174.8125 344.015625h-22.640625v-32c0-17.671875-14.324219-32-32-32h-48c-8.835937 0-16-7.164063-16-16v-22.640625c.226563-13.09375-9.679687-24.148438-22.71875-25.359375-6.582031-.351563-13.023437 2.019531-17.804687 6.558594-4.78125 4.542969-7.484376 10.847656-7.476563 17.441406v120c0 17.671875 14.328125 32 32 32h136c6.59375.007813 12.902344-2.695313 17.441406-7.476563 4.539063-4.78125 6.914063-11.21875 6.558594-17.804687-1.210937-13.039063-12.265625-22.941406-25.359375-22.71875zm0 0" fill="#57b7eb"/><path d="m172.972656 416.015625-4.800781-24h-32l9.601563 24zm0 0" fill="#93999a"/><path d="m62.574219 416.015625 9.597656-24h-32l-4.796875 24zm0 0" fill="#93999a"/><path d="m128.171875 336.015625c0-17.671875-14.324219-32-32-32h-32c-17.671875 0-32-14.328125-32-32v-56c-13.253906 0-24 10.746094-24 24v120c0 17.671875 14.328125 32 32 32h136c13.257813 0 24-10.746094 24-24h-40c-17.671875 0-32-14.328125-32-32zm0 0" fill="#4891d3"/><path d="m296.171875 304.015625h40v56h-40zm0 0" fill="#4891d3"/><path d="m168.171875 56.015625h144v144h-144zm0 0" fill="#57b7eb"/><path d="m192.171875 112.015625v-56h-24v144h144v-24h-56c-35.34375 0-64-28.652344-64-64zm0 0" fill="#4891d3"/><path d="m256.171875 104.015625c0 8.835937-7.160156 16-16 16-8.835937 0-16-7.164063-16-16s7.164063-16 16-16c8.839844 0 16 7.164063 16 16zm0 0" fill="#f9e109"/><path d="m259.453125 156.734375c-10.652344 10.640625-27.90625 10.640625-38.558594 0-7.730469-7.699219-19.292969-10.085937-29.441406-6.078125l-23.28125 9.359375v40h144v-40l-23.277344-9.359375c-10.148437-4.007812-21.710937-1.621094-29.441406 6.078125zm0 0" fill="#c4f236"/><path d="m203.933594 148.894531c-4.242188-.40625-8.515625.195313-12.480469 1.761719l-23.28125 9.359375v40h144v-24h-56c-20.78125-.019531-40.261719-10.132813-52.238281-27.121094zm0 0" fill="#a1d51c"/><path d="m448.171875 320.015625c-.039063-11.390625-6.132813-21.902344-16-27.601563v-20.398437h-32v20.398437c-8.203125 4.8125-13.84375 13.023438-15.386719 22.40625-1.546875 9.382813 1.160156 18.96875 7.386719 26.15625v19.039063h48v-19.039063c5.109375-5.792968 7.953125-13.238281 8-20.960937zm0 0" fill="#d0d8da"/><path d="m440.171875 240.015625h24c0 17.671875-14.324219 32-32 32h-16v-8c0-13.253906 10.746094-24 24-24zm0 0" fill="#c4f236"/><path d="m416.171875 272.015625h-16c-17.671875 0-32-14.328125-32-32h24c13.257813 0 24 10.746094 24 24zm0 0" fill="#c4f236"/><path d="m413.804688 252.300781-11.316407-11.3125c-12.496093-12.496093-12.496093-32.757812 0-45.253906l16.972657 16.96875c9.371093 9.371094 9.371093 24.570313 0 33.941406zm0 0" fill="#c4f236"/><path d="m408.171875 340.976562c-6.226563-7.1875-8.933594-16.773437-7.386719-26.15625 1.542969-9.382812 7.183594-17.59375 15.386719-22.40625v-4.398437h16v-16h-32v20.398437c-8.203125 4.8125-13.84375 13.023438-15.386719 22.40625-1.546875 9.382813 1.160156 18.96875 7.386719 26.15625v19.039063h35.042969c-10.5-.042969-18.996094-8.542969-19.042969-19.039063zm0 0" fill="#93999a"/><path d="m432.171875 256.015625h-14.558594c-.929687 2.566406-1.417969 5.269531-1.441406 8v8h16c17.675781 0 32-14.328125 32-32h-4.398437c-5.695313 9.867187-16.207032 15.960937-27.601563 16zm0 0" fill="#a1d51c"/><path d="m400.171875 256.015625c-11.390625-.039063-21.902344-6.132813-27.597656-16h-4.402344c0 17.671875 14.328125 32 32 32h16v-8c-.019531-2.730469-.507813-5.433594-1.4375-8zm0 0" fill="#a1d51c"/><path d="m421.855469 236.335938-11.363281-11.359376c-7.367188-7.414062-10.652344-17.957031-8.796876-28.242187-11.617187 12.585937-11.261718 32.085937.796876 44.242187l11.363281 11.359376 5.597656-5.679688c3.917969-3.9375 6.351563-9.113281 6.878906-14.640625zm0 0" fill="#a1d51c"/><path d="m312.171875 304.015625h24v40c-13.253906 0-24-10.746094-24-24zm0 0" fill="#57b7eb"/><path d="m296.171875 360.015625h160c8.839844 0 16 7.164063 16 16h-160c-8.835937 0-16-7.164063-16-16zm0 0" fill="#f9e109"/><g fill="#323232"><path d="m480.171875 376.015625c0-13.253906-10.742187-24-24-24h-8v-8c5.238281-6.902344 8.050781-15.335937 8-24 0-12.589844-5.925781-24.445313-16-32v-8.800781c18.628906-3.800782 32.003906-20.1875 32-39.199219 0-4.417969-3.578125-8-8-8h-24c-1.988281.011719-3.972656.226563-5.917969.640625 0-1.039062 0-2 0-2.960938.007813-8.488281-3.359375-16.632812-9.359375-22.640624l-16.722656-16.960938c-3.117187-3.101562-8.15625-3.101562-11.277344 0-11.125 10.90625-14.734375 27.363281-9.199219 41.921875h-19.523437c-4.417969 0-8 3.582031-8 8-.003906 19.011719 13.375 35.398437 32 39.199219v8.800781c-10.070313 7.554687-16 19.410156-16 32-.046875 8.664063 2.765625 17.097656 8 24v8h-40v-48c0-4.417969-3.578125-8-8-8h-56c-13.253906 0-24 10.746094-24 24s10.746094 24 24 24h8v8h-8c-13.253906 0-24 10.746094-24 24s10.746094 24 24 24h13.28125l-21.28125 69.679687c-1.28125 4.242188 1.121094 8.71875 5.363281 10 4.238282 1.28125 8.71875-1.117187 10-5.359374l22.558594-74.320313h116.160156l21.917969 74.320313c1.28125 4.417968 5.902344 6.960937 10.320313 5.679687 4.417968-1.28125 6.960937-5.902344 5.679687-10.320313l-21.277344-69.679687h13.277344c13.257813 0 24-10.746094 24-24zm-25.359375-128c-3.390625 9.59375-12.464844 16.003906-22.640625 16h-8c0-8.835937 7.164063-16 16-16zm-51.359375-40 10.402344 10.320313c2.992187 3.019531 4.664062 7.105468 4.636719 11.359374-.015626 4.121094-1.621094 8.074219-4.476563 11.039063l-2.402344-1.917969-3.441406-3.519531c-4.5-4.496094-7.03125-10.597656-7.039063-16.960937-.003906-3.570313.789063-7.09375 2.320313-10.320313zm-25.917969 40h14.636719c3.066406.007813 6.066406.898437 8.640625 2.558594l4.800781 4.800781c1.664063 2.574219 2.550781 5.574219 2.558594 8.640625h-8c-10.171875.003906-19.246094-6.40625-22.636719-16zm20.636719 88c-4.632813-5.386719-6.640625-12.550781-5.480469-19.5625 1.15625-7.007813 5.363282-13.148437 11.480469-16.757813 2.488281-1.433593 4.011719-4.089843 4-6.960937v-12.71875h16v12.398437c-.007813 2.871094 1.515625 5.527344 4 6.960938 6.230469 3.601562 10.511719 9.800781 11.675781 16.898438 1.160156 7.101562-.921875 14.34375-5.675781 19.742187-1.285156 1.457031-1.996094 3.335937-2 5.28125v10.71875h-32v-11.039063c-.074219-1.835937-.78125-3.585937-2-4.960937zm-118-8c-4.417969 0-8-3.582031-8-8s3.582031-8 8-8h8v16zm24-16h24v40h-24zm-32 64c0-4.417969 3.582031-8 8-8h176c4.421875 0 8 3.582031 8 8s-3.578125 8-8 8h-176c-4.417969 0-8-3.582031-8-8zm0 0"/><path d="m174.8125 336.015625h-14.640625v-24c0-22.089844-17.90625-40-40-40h-48c-4.417969 0-8-3.582031-8-8v-22.640625c.347656-17.402344-12.960937-32.046875-30.316406-33.359375-8.875-.527344-17.570313 2.660156-24 8.800781-6.257813 6.089844-9.753907 14.46875-9.683594 23.199219v72c0 4.417969 3.582031 8 8 8 4.421875 0 8-3.582031 8-8v-72c-.003906-4.402344 1.800781-8.609375 4.996094-11.636719 3.191406-3.027344 7.492187-4.605468 11.886719-4.363281 8.777343.992187 15.339843 8.527344 15.117187 17.359375v22.640625c0 13.253906 10.746094 24 24 24h48c13.257813 0 24 10.746094 24 24v56c0 4.417969 3.582031 8 8 8 4.421875 0 8-3.582031 8-8v-16h14.640625c8.832031-.222656 16.367188 6.34375 17.359375 15.121094.242187 4.394531-1.335937 8.691406-4.363281 11.886719-3.027344 3.191406-7.234375 5-11.636719 4.992187h-136c-13.253906 0-24-10.746094-24-24v-16c0-4.417969-3.578125-8-8-8-4.417969 0-8 3.582031-8 8v16c.0625 18.375 12.632813 34.347656 30.480469 38.71875l-14.480469 71.679687c-.460937 2.355469.15625 4.792969 1.683594 6.640626 1.539062 1.902343 3.871093 2.992187 6.316406 2.960937h16c3.28125.003906 6.230469-1.996094 7.441406-5.039063l30-74.960937h53.121094l30 74.960937c1.210937 3.042969 4.160156 5.042969 7.4375 5.039063h16c2.394531-.015625 4.65625-1.101563 6.160156-2.960937 1.585938-1.820313 2.261719-4.261719 1.839844-6.640626l-14.238281-70.398437c17.652344-.945313 31.195312-16.027344 30.238281-33.679687-1.3125-17.359376-15.953125-30.667969-33.359375-30.320313zm-140.078125 128h-.800781l12.800781-64h13.597656zm138.878906 0-25.597656-64h13.597656l12.800781 64zm0 0"/><path d="m216.171875 104.015625c0 13.253906 10.746094 24 24 24 13.257813 0 24-10.746094 24-24s-10.742187-24-24-24c-13.253906 0-24 10.746094-24 24zm32 0c0 4.417969-3.578125 8-8 8-4.417969 0-8-3.582031-8-8s3.582031-8 8-8c4.421875 0 8 3.582031 8 8zm0 0"/><path d="m160.171875 160.015625v40c0 4.417969 3.582031 8 8 8h144c4.421875 0 8-3.582031 8-8v-88c0-4.417969-3.578125-8-8-8-4.417969 0-8 3.582031-8 8v36.160156l-12.316406-4.878906c-13.148438-5.230469-28.148438-2.078125-38.082031 8-3.601563 3.613281-8.496094 5.644531-13.601563 5.644531-5.101563 0-9.996094-2.03125-13.597656-5.644531-9.933594-10.078125-24.933594-13.230469-38.082031-8l-12.320313 4.878906v-84.160156h128v16c0 4.417969 3.582031 8 8 8 4.421875 0 8-3.582031 8-8v-24c0-4.417969-3.578125-8-8-8h-28.238281l-37.601563-45.121094c-1.519531-1.832031-3.777343-2.894531-6.160156-2.894531-2.378906 0-4.636719 1.0625-6.15625 2.894531l-37.601563 45.121094h-28.242187c-4.417969 0-8 3.582031-8 8zm80-139.519531 22.960937 27.519531h-45.917968zm-45.679687 137.597656c7.148437-2.839844 15.304687-1.136719 20.722656 4.320312 13.796875 13.753907 36.121094 13.753907 49.917968 0 5.445313-5.472656 13.628907-7.171874 20.800782-4.320312l18.238281 7.363281v26.558594h-128v-26.558594zm0 0"/></g></svg>