<svg height="512pt" viewBox="-40 0 512 512" width="512pt" xmlns="http://www.w3.org/2000/svg"><path d="m8 48h416v416h-416zm0 0" fill="#db380e"/><path d="m35.515625 419.515625c4.683594-4.6875 12.285156-4.6875 16.96875 0 4.6875 4.683594 4.6875 12.285156 0 16.96875-8.25 8.25-33.941406 16.972656-33.941406 16.972656s8.605469-25.574219 16.972656-33.941406zm0 0" fill="#f6e23d"/><path d="m68 356c0-6.628906 5.371094-12 12-12s12 5.371094 12 12c0 11.667969-12 36-12 36s-12-24.167969-12-36zm0 0" fill="#f6e23d"/><path d="m116 380c6.628906 0 12 5.371094 12 12s-5.371094 12-12 12c-11.667969 0-36-12-36-12s24.167969-12 36-12zm0 0" fill="#f6e23d"/><path d="m96.972656 358.058594c4.683594-4.6875 12.28125-4.6875 16.96875 0s4.6875 12.285156 0 16.96875c-8.25 8.25-33.941406 16.972656-33.941406 16.972656s8.601562-25.574219 16.972656-33.941406zm0 0" fill="#8edf78"/><path d="m46.058594 375.027344c-4.6875-4.683594-4.6875-12.28125 0-16.96875s12.285156-4.6875 16.96875 0c8.25 8.25 16.972656 33.941406 16.972656 33.941406s-25.574219-8.601562-33.941406-16.972656zm0 0" fill="#8edf78"/><path d="m113.941406 408.972656c4.6875 4.683594 4.6875 12.28125 0 16.96875s-12.285156 4.6875-16.972656 0c-8.246094-8.25-16.96875-33.941406-16.96875-33.941406s25.574219 8.601562 33.941406 16.972656zm0 0" fill="#8edf78"/><path d="m96 392c0 8.835938-7.164062 16-16 16s-16-7.164062-16-16 7.164062-16 16-16 16 7.164062 16 16zm0 0" fill="#e4e8ed"/><path d="m68 356c0-6.628906 5.371094-12 12-12s12 5.371094 12 12c0 11.667969-12 36-12 36s-12-24.167969-12-36zm0 0" fill="#f6e23d"/><path d="m116 380c6.628906 0 12 5.371094 12 12s-5.371094 12-12 12c-11.667969 0-36-12-36-12s24.167969-12 36-12zm0 0" fill="#f6e23d"/><path d="m96.972656 358.058594c4.683594-4.6875 12.28125-4.6875 16.96875 0s4.6875 12.285156 0 16.96875c-8.25 8.25-33.941406 16.972656-33.941406 16.972656s8.601562-25.574219 16.972656-33.941406zm0 0" fill="#8edf78"/><path d="m46.058594 375.027344c-4.6875-4.683594-4.6875-12.28125 0-16.96875s12.285156-4.6875 16.96875 0c8.25 8.25 16.972656 33.941406 16.972656 33.941406s-25.574219-8.601562-33.941406-16.972656zm0 0" fill="#8edf78"/><path d="m113.941406 408.972656c4.6875 4.683594 4.6875 12.28125 0 16.96875s-12.285156 4.6875-16.972656 0c-8.246094-8.25-16.96875-33.941406-16.96875-33.941406s25.574219 8.601562 33.941406 16.972656zm0 0" fill="#8edf78"/><path d="m96 392c0 8.835938-7.164062 16-16 16s-16-7.164062-16-16 7.164062-16 16-16 16 7.164062 16 16zm0 0" fill="#e4e8ed"/><path d="m68 156c0 6.628906 5.371094 12 12 12s12-5.371094 12-12c0-11.667969-12-36-12-36s-12 24.167969-12 36zm0 0" fill="#f6e23d"/><path d="m116 132c6.628906 0 12-5.371094 12-12s-5.371094-12-12-12c-11.667969 0-36 12-36 12s24.167969 12 36 12zm0 0" fill="#f6e23d"/><path d="m96.972656 153.941406c4.683594 4.6875 12.28125 4.6875 16.96875 0s4.6875-12.285156 0-16.972656c-8.25-8.246094-33.941406-16.96875-33.941406-16.96875s8.601562 25.574219 16.972656 33.941406zm0 0" fill="#8edf78"/><path d="m113.941406 103.027344c4.6875-4.683594 4.6875-12.28125 0-16.96875s-12.285156-4.6875-16.972656 0c-8.246094 8.25-16.96875 33.941406-16.96875 33.941406s25.574219-8.601562 33.941406-16.972656zm0 0" fill="#8edf78"/><path d="m46.058594 136.972656c-4.6875 4.683594-4.6875 12.28125 0 16.96875s12.285156 4.6875 16.96875 0c8.25-8.25 16.972656-33.941406 16.972656-33.941406s-25.574219 8.601562-33.941406 16.972656zm0 0" fill="#8edf78"/><path d="m96 120c0 8.835938-7.164062 16-16 16s-16-7.164062-16-16 7.164062-16 16-16 16 7.164062 16 16zm0 0" fill="#e4e8ed"/><path d="m68 156c0 6.628906 5.371094 12 12 12s12-5.371094 12-12c0-11.667969-12-36-12-36s-12 24.167969-12 36zm0 0" fill="#f6e23d"/><path d="m116 132c6.628906 0 12-5.371094 12-12s-5.371094-12-12-12c-11.667969 0-36 12-36 12s24.167969 12 36 12zm0 0" fill="#f6e23d"/><path d="m96.972656 153.941406c4.683594 4.6875 12.28125 4.6875 16.96875 0s4.6875-12.285156 0-16.972656c-8.25-8.246094-33.941406-16.96875-33.941406-16.96875s8.601562 25.574219 16.972656 33.941406zm0 0" fill="#8edf78"/><path d="m113.941406 103.027344c4.6875-4.683594 4.6875-12.28125 0-16.96875s-12.285156-4.6875-16.972656 0c-8.246094 8.25-16.96875 33.941406-16.96875 33.941406s25.574219-8.601562 33.941406-16.972656zm0 0" fill="#8edf78"/><path d="m46.058594 136.972656c-4.6875 4.683594-4.6875 12.28125 0 16.96875s12.285156 4.6875 16.96875 0c8.25-8.25 16.972656-33.941406 16.972656-33.941406s-25.574219 8.601562-33.941406 16.972656zm0 0" fill="#8edf78"/><path d="m96 120c0 8.835938-7.164062 16-16 16s-16-7.164062-16-16 7.164062-16 16-16 16 7.164062 16 16zm0 0" fill="#e4e8ed"/><path d="m52.484375 75.515625c4.6875 4.683594 4.6875 12.285156 0 16.96875-4.683594 4.6875-12.285156 4.6875-16.96875 0-8.25-8.25-16.972656-33.941406-16.972656-33.941406s25.574219 8.605469 33.941406 16.972656zm0 0" fill="#f6e23d"/><path d="m364 156c0 6.628906-5.371094 12-12 12s-12-5.371094-12-12c0-11.667969 12-36 12-36s12 24.167969 12 36zm0 0" fill="#f6e23d"/><path d="m316 132c-6.628906 0-12-5.371094-12-12s5.371094-12 12-12c11.667969 0 36 12 36 12s-24.167969 12-36 12zm0 0" fill="#f6e23d"/><path d="m335.027344 153.941406c-4.683594 4.6875-12.28125 4.6875-16.96875 0s-4.6875-12.285156 0-16.972656c8.25-8.246094 33.941406-16.96875 33.941406-16.96875s-8.601562 25.574219-16.972656 33.941406zm0 0" fill="#8edf78"/><path d="m318.058594 103.027344c-4.6875-4.683594-4.6875-12.28125 0-16.96875s12.285156-4.6875 16.972656 0c8.246094 8.25 16.96875 33.941406 16.96875 33.941406s-25.574219-8.601562-33.941406-16.972656zm0 0" fill="#8edf78"/><path d="m385.941406 136.972656c4.6875 4.683594 4.6875 12.28125 0 16.96875s-12.285156 4.6875-16.96875 0c-8.25-8.25-16.972656-33.941406-16.972656-33.941406s25.574219 8.601562 33.941406 16.972656zm0 0" fill="#8edf78"/><path d="m368 120c0 8.835938-7.164062 16-16 16s-16-7.164062-16-16 7.164062-16 16-16 16 7.164062 16 16zm0 0" fill="#e4e8ed"/><path d="m364 156c0 6.628906-5.371094 12-12 12s-12-5.371094-12-12c0-11.667969 12-36 12-36s12 24.167969 12 36zm0 0" fill="#f6e23d"/><path d="m316 132c-6.628906 0-12-5.371094-12-12s5.371094-12 12-12c11.667969 0 36 12 36 12s-24.167969 12-36 12zm0 0" fill="#f6e23d"/><path d="m335.027344 153.941406c-4.683594 4.6875-12.28125 4.6875-16.96875 0s-4.6875-12.285156 0-16.972656c8.25-8.246094 33.941406-16.96875 33.941406-16.96875s-8.601562 25.574219-16.972656 33.941406zm0 0" fill="#8edf78"/><path d="m318.058594 103.027344c-4.6875-4.683594-4.6875-12.28125 0-16.96875s12.285156-4.6875 16.972656 0c8.246094 8.25 16.96875 33.941406 16.96875 33.941406s-25.574219-8.601562-33.941406-16.972656zm0 0" fill="#8edf78"/><path d="m385.941406 136.972656c4.6875 4.683594 4.6875 12.28125 0 16.96875s-12.285156 4.6875-16.96875 0c-8.25-8.25-16.972656-33.941406-16.972656-33.941406s25.574219 8.601562 33.941406 16.972656zm0 0" fill="#8edf78"/><path d="m368 120c0 8.835938-7.164062 16-16 16s-16-7.164062-16-16 7.164062-16 16-16 16 7.164062 16 16zm0 0" fill="#e4e8ed"/><path d="m400 48h24v416h-24zm0 0" fill="#be310c"/><path d="m144 256c0 8.835938-7.164062 16-16 16s-16-7.164062-16-16 7.164062-16 16-16 16 7.164062 16 16zm0 0" fill="#e4e8ed"/><path d="m320 256c0 8.835938-7.164062 16-16 16s-16-7.164062-16-16 7.164062-16 16-16 16 7.164062 16 16zm0 0" fill="#e4e8ed"/><path d="m232 168c0 8.835938-7.164062 16-16 16s-16-7.164062-16-16 7.164062-16 16-16 16 7.164062 16 16zm0 0" fill="#e4e8ed"/><path d="m232 344c0 8.835938-7.164062 16-16 16s-16-7.164062-16-16 7.164062-16 16-16 16 7.164062 16 16zm0 0" fill="#e4e8ed"/><path d="m379.515625 75.515625c-4.6875 4.683594-4.6875 12.285156 0 16.96875 4.683594 4.6875 12.285156 4.6875 16.96875 0 8.25-8.25 16.972656-33.941406 16.972656-33.941406s-25.574219 8.605469-33.941406 16.972656zm0 0" fill="#f6e23d"/><path d="m396.484375 419.515625c-4.683594-4.6875-12.285156-4.6875-16.96875 0-4.6875 4.683594-4.6875 12.285156 0 16.96875 8.25 8.25 33.941406 16.972656 33.941406 16.972656s-8.605469-25.574219-16.972656-33.941406zm0 0" fill="#f6e23d"/><g fill="#fff"><path d="m40.5 232h15v16h-15zm0 0"/><path d="m40.5 296h15v16h-15zm0 0"/><path d="m376.5 200h15v16h-15zm0 0"/><path d="m376.5 264h15v16h-15zm0 0"/><path d="m224 80.5h16v15h-16zm0 0"/><path d="m160 80.5h16v15h-16zm0 0"/><path d="m256 416.5h16v15h-16zm0 0"/><path d="m192 416.5h16v15h-16zm0 0"/></g><path d="m228 292c0 6.628906-5.371094 12-12 12s-12-5.371094-12-12c0-11.667969 12-36 12-36s12 24.167969 12 36zm0 0" fill="#f6e23d"/><path d="m204 220c0-6.628906 5.371094-12 12-12s12 5.371094 12 12c0 11.667969-12 36-12 36s-12-24.167969-12-36zm0 0" fill="#f6e23d"/><path d="m180 268c-6.628906 0-12-5.371094-12-12s5.371094-12 12-12c11.667969 0 36 12 36 12s-24.167969 12-36 12zm0 0" fill="#f6e23d"/><path d="m252 244c6.628906 0 12 5.371094 12 12s-5.371094 12-12 12c-11.667969 0-36-12-36-12s24.167969-12 36-12zm0 0" fill="#f6e23d"/><path d="m199.027344 289.941406c-4.683594 4.6875-12.28125 4.6875-16.96875 0s-4.6875-12.285156 0-16.96875c8.25-8.25 33.941406-16.972656 33.941406-16.972656s-8.601562 25.574219-16.972656 33.941406zm0 0" fill="#8edf78"/><path d="m232.972656 222.058594c4.683594-4.6875 12.28125-4.6875 16.96875 0s4.6875 12.285156 0 16.972656c-8.25 8.246094-33.941406 16.96875-33.941406 16.96875s8.601562-25.574219 16.972656-33.941406zm0 0" fill="#8edf78"/><path d="m182.058594 239.027344c-4.6875-4.683594-4.6875-12.28125 0-16.96875s12.285156-4.6875 16.96875 0c8.25 8.25 16.972656 33.941406 16.972656 33.941406s-25.574219-8.601562-33.941406-16.972656zm0 0" fill="#8edf78"/><path d="m249.941406 272.972656c4.6875 4.683594 4.6875 12.28125 0 16.96875s-12.285156 4.6875-16.96875 0c-8.25-8.25-16.972656-33.941406-16.972656-33.941406s25.574219 8.601562 33.941406 16.972656zm0 0" fill="#8edf78"/><path d="m232 256c0 8.835938-7.164062 16-16 16s-16-7.164062-16-16 7.164062-16 16-16 16 7.164062 16 16zm0 0" fill="#e4e8ed"/><path d="m228 292c0 6.628906-5.371094 12-12 12s-12-5.371094-12-12c0-11.667969 12-36 12-36s12 24.167969 12 36zm0 0" fill="#f6e23d"/><path d="m204 220c0-6.628906 5.371094-12 12-12s12 5.371094 12 12c0 11.667969-12 36-12 36s-12-24.167969-12-36zm0 0" fill="#f6e23d"/><path d="m180 268c-6.628906 0-12-5.371094-12-12s5.371094-12 12-12c11.667969 0 36 12 36 12s-24.167969 12-36 12zm0 0" fill="#f6e23d"/><path d="m252 244c6.628906 0 12 5.371094 12 12s-5.371094 12-12 12c-11.667969 0-36-12-36-12s24.167969-12 36-12zm0 0" fill="#f6e23d"/><path d="m199.027344 289.941406c-4.683594 4.6875-12.28125 4.6875-16.96875 0s-4.6875-12.285156 0-16.96875c8.25-8.25 33.941406-16.972656 33.941406-16.972656s-8.601562 25.574219-16.972656 33.941406zm0 0" fill="#8edf78"/><path d="m232.972656 222.058594c4.683594-4.6875 12.28125-4.6875 16.96875 0s4.6875 12.285156 0 16.972656c-8.25 8.246094-33.941406 16.96875-33.941406 16.96875s8.601562-25.574219 16.972656-33.941406zm0 0" fill="#8edf78"/><path d="m182.058594 239.027344c-4.6875-4.683594-4.6875-12.28125 0-16.96875s12.285156-4.6875 16.96875 0c8.25 8.25 16.972656 33.941406 16.972656 33.941406s-25.574219-8.601562-33.941406-16.972656zm0 0" fill="#8edf78"/><path d="m249.941406 272.972656c4.6875 4.683594 4.6875 12.28125 0 16.96875s-12.285156 4.6875-16.96875 0c-8.25-8.25-16.972656-33.941406-16.972656-33.941406s25.574219 8.601562 33.941406 16.972656zm0 0" fill="#8edf78"/><path d="m232 256c0 8.835938-7.164062 16-16 16s-16-7.164062-16-16 7.164062-16 16-16 16 7.164062 16 16zm0 0" fill="#e4e8ed"/><path d="m364 356c0-6.628906-5.371094-12-12-12s-12 5.371094-12 12c0 11.667969 12 36 12 36s12-24.167969 12-36zm0 0" fill="#f6e23d"/><path d="m316 380c-6.628906 0-12 5.371094-12 12s5.371094 12 12 12c11.667969 0 36-12 36-12s-24.167969-12-36-12zm0 0" fill="#f6e23d"/><path d="m335.027344 358.058594c-4.683594-4.6875-12.28125-4.6875-16.96875 0s-4.6875 12.285156 0 16.96875c8.25 8.25 33.941406 16.972656 33.941406 16.972656s-8.601562-25.574219-16.972656-33.941406zm0 0" fill="#8edf78"/><path d="m385.941406 375.027344c4.6875-4.683594 4.6875-12.28125 0-16.96875s-12.285156-4.6875-16.96875 0c-8.25 8.25-16.972656 33.941406-16.972656 33.941406s25.574219-8.601562 33.941406-16.972656zm0 0" fill="#8edf78"/><path d="m318.058594 408.972656c-4.6875 4.683594-4.6875 12.28125 0 16.96875s12.285156 4.6875 16.972656 0c8.246094-8.25 16.96875-33.941406 16.96875-33.941406s-25.574219 8.601562-33.941406 16.972656zm0 0" fill="#8edf78"/><path d="m368 392c0 8.835938-7.164062 16-16 16s-16-7.164062-16-16 7.164062-16 16-16 16 7.164062 16 16zm0 0" fill="#e4e8ed"/><path d="m364 356c0-6.628906-5.371094-12-12-12s-12 5.371094-12 12c0 11.667969 12 36 12 36s12-24.167969 12-36zm0 0" fill="#f6e23d"/><path d="m316 380c-6.628906 0-12 5.371094-12 12s5.371094 12 12 12c11.667969 0 36-12 36-12s-24.167969-12-36-12zm0 0" fill="#f6e23d"/><path d="m335.027344 358.058594c-4.683594-4.6875-12.28125-4.6875-16.96875 0s-4.6875 12.285156 0 16.96875c8.25 8.25 33.941406 16.972656 33.941406 16.972656s-8.601562-25.574219-16.972656-33.941406zm0 0" fill="#8edf78"/><path d="m385.941406 375.027344c4.6875-4.683594 4.6875-12.28125 0-16.96875s-12.285156-4.6875-16.96875 0c-8.25 8.25-16.972656 33.941406-16.972656 33.941406s25.574219-8.601562 33.941406-16.972656zm0 0" fill="#8edf78"/><path d="m318.058594 408.972656c-4.6875 4.683594-4.6875 12.28125 0 16.96875s12.285156 4.6875 16.972656 0c8.246094-8.25 16.96875-33.941406 16.96875-33.941406s-25.574219 8.601562-33.941406 16.972656zm0 0" fill="#8edf78"/><path d="m368 392c0 8.835938-7.164062 16-16 16s-16-7.164062-16-16 7.164062-16 16-16 16 7.164062 16 16zm0 0" fill="#e4e8ed"/><path d="m40.757812 380.332031c3.277344 3.28125 8.476563 6.628907 15.792969 10.179688-.03125.492187-.050781.988281-.050781 1.488281 0 12.957031 10.542969 23.5 23.5 23.5.511719 0 1.015625-.023438 1.515625-.054688 3.5625 7.351563 6.902344 12.550782 10.152344 15.800782 3.800781 3.800781 8.792969 5.699218 13.785156 5.699218 4.996094 0 9.988281-1.898437 13.789063-5.699218 5.734374-5.734375 7.136718-14.175782 4.226562-21.238282 7.054688-2.941406 12.03125-9.902343 12.03125-18.007812s-4.976562-15.066406-12.027344-18.007812c2.910156-7.0625 1.503906-15.503907-4.230468-21.238282-5.730469-5.730468-14.171876-7.136718-21.234376-4.226562-2.941406-7.054688-9.902343-12.027344-18.007812-12.027344s-15.066406 4.976562-18.007812 12.027344c-7.0625-2.910156-15.503907-1.503906-21.234376 4.226562-7.605468 7.605469-7.605468 19.976563 0 27.578125zm79.742188 11.667969c0 2.480469-2.019531 4.5-4.5 4.5-1.574219 0-4.996094-.382812-11.609375-2.550781-.308594-.152344-.625-.304688-.941406-.460938.03125-.492187.050781-.988281.050781-1.488281 0-.511719-.023438-1.015625-.054688-1.519531.3125-.148438.625-.300781.933594-.453125 6.578125-2.148438 10.027344-2.527344 11.621094-2.527344 2.480469 0 4.5 2.019531 4.5 4.5zm-24.691406-18.5625c3.148437-6.214844 5.328125-8.941406 6.464844-10.074219.878906-.878906 2.027343-1.316406 3.179687-1.316406s2.308594.4375 3.183594 1.316406c1.753906 1.753907 1.753906 4.609375 0 6.363281-1.121094 1.121094-3.824219 3.28125-10.074219 6.4375-.3125.105469-.621094.207032-.9375.316407-.664062-.753907-1.371094-1.460938-2.128906-2.125.109375-.3125.207031-.613281.3125-.917969zm1.835937 34.058594c.308594.109375.609375.207031.917969.3125 6.214844 3.148437 8.941406 5.332031 10.074219 6.464844.851562.851562 1.320312 1.980468 1.320312 3.183593s-.46875 2.332031-1.320312 3.183594c-1.753907 1.753906-4.609375 1.753906-6.363281 0-1.167969-1.171875-3.472657-4.074219-6.859376-10.921875.789063-.691406 1.535157-1.433594 2.230469-2.222656zm-17.644531-55.996094c2.480469 0 4.5 2.019531 4.5 4.5 0 1.574219-.382812 4.996094-2.546875 11.605469-.152344.308593-.308594.628906-.464844.945312-.492187-.03125-.988281-.050781-1.488281-.050781-.511719 0-1.015625.023438-1.515625.054688-.152344-.3125-.304687-.628907-.457031-.933594-2.148438-6.578125-2.527344-10.023438-2.527344-11.621094 0-2.480469 2.019531-4.5 4.5-4.5zm0 32c4.6875 0 8.5 3.8125 8.5 8.5s-3.8125 8.5-8.5 8.5-8.5-3.8125-8.5-8.5 3.8125-8.5 8.5-8.5zm-28.636719-20.136719c.875-.878906 2.027344-1.316406 3.179688-1.316406 1.152343 0 2.304687.4375 3.183593 1.316406 1.121094 1.117188 3.28125 3.824219 6.4375 10.074219.105469.3125.207032.617188.316407.9375-.785157.691406-1.527344 1.4375-2.214844 2.230469-6.800781-3.371094-9.71875-5.695313-10.902344-6.878907-1.753906-1.753906-1.753906-4.609374 0-6.363281zm0 0"/><path d="m40.757812 159.246094c3.800782 3.800781 8.792969 5.699218 13.785157 5.699218 2.535156 0 5.070312-.496093 7.449219-1.476562 2.941406 7.054688 9.902343 12.03125 18.007812 12.03125s15.066406-4.976562 18.007812-12.03125c2.378907.980469 4.914063 1.476562 7.445313 1.476562 4.996094 0 9.988281-1.898437 13.789063-5.699218 5.734374-5.734375 7.136718-14.175782 4.226562-21.238282 7.054688-2.941406 12.03125-9.902343 12.03125-18.007812s-4.976562-15.066406-12.027344-18.007812c2.910156-7.0625 1.503906-15.503907-4.230468-21.238282-7.601563-7.601562-19.972657-7.601562-27.574219 0-3.25 3.25-6.589844 8.445313-10.152344 15.800782-.5-.03125-1.007813-.054688-1.515625-.054688-12.957031 0-23.5 10.542969-23.5 23.5 0 .5.019531.996094.050781 1.492188-7.320312 3.550781-12.515625 6.898437-15.792969 10.175781-7.605468 7.601562-7.605468 19.972656 0 27.578125zm67.878907-10.609375c-1.753907 1.757812-4.609375 1.753906-6.363281 0-1.136719-1.132813-3.316407-3.859375-6.464844-10.074219-.101563-.304688-.203125-.605469-.3125-.917969.757812-.664062 1.464844-1.371093 2.128906-2.125.316406.109375.625.210938.9375.316407 6.25 3.160156 8.953125 5.320312 10.074219 6.441406 1.753906 1.75 1.753906 4.605468 0 6.359375zm11.863281-28.636719c0 2.480469-2.019531 4.5-4.5 4.5-1.597656 0-5.042969-.378906-11.625-2.53125-.304688-.148438-.617188-.300781-.929688-.453125.03125-.5.054688-1.003906.054688-1.515625 0-.5-.019531-.996094-.050781-1.488281.316406-.15625.632812-.308594.941406-.460938 6.613281-2.167969 10.035156-2.550781 11.609375-2.550781 2.480469 0 4.5 2.019531 4.5 4.5zm-18.226562-28.636719c.878906-.878906 2.03125-1.316406 3.183593-1.316406 1.152344 0 2.304688.4375 3.179688 1.316406 1.753906 1.753907 1.753906 4.609375 0 6.363281-1.136719 1.136719-3.859375 3.316407-10.070313 6.464844-.308594.101563-.609375.203125-.921875.3125-.695312-.789062-1.4375-1.53125-2.230469-2.21875 3.386719-6.851562 5.691407-9.753906 6.859376-10.921875zm-22.273438 69.136719c-2.480469 0-4.5-2.019531-4.5-4.5 0-1.597656.378906-5.042969 2.53125-11.621094.148438-.308594.300781-.621094.453125-.933594.5.03125 1.007813.054688 1.515625.054688.503906 0 .996094-.019531 1.492188-.050781.152343.316406.308593.636719.460937.945312 2.164063 6.609375 2.546875 10.03125 2.546875 11.605469 0 2.480469-2.019531 4.5-4.5 4.5zm0-49c4.6875 0 8.5 3.8125 8.5 8.5s-3.8125 8.5-8.5 8.5-8.5-3.8125-8.5-8.5 3.8125-8.5 8.5-8.5zm-28.636719 30.773438c1.183594-1.183594 4.101563-3.507813 10.902344-6.878907.6875.792969 1.429687 1.539063 2.214844 2.230469-.109375.320312-.210938.625-.316407.9375-3.15625 6.246094-5.316406 8.953125-6.4375 10.074219-1.753906 1.757812-4.609374 1.757812-6.367187 0-.847656-.851563-1.316406-1.980469-1.316406-3.183594 0-1.199219.46875-2.328125 1.320312-3.179687zm0 0"/><path d="m296.5 120c0 8.105469 4.972656 15.066406 12.027344 18.007812-2.910156 7.0625-1.503906 15.503907 4.230468 21.238282 3.800782 3.800781 8.792969 5.699218 13.785157 5.699218 2.535156 0 5.070312-.496093 7.449219-1.476562 2.941406 7.054688 9.902343 12.03125 18.007812 12.03125s15.066406-4.976562 18.007812-12.03125c2.378907.980469 4.914063 1.476562 7.445313 1.476562 4.996094 0 9.988281-1.898437 13.789063-5.699218 7.605468-7.605469 7.605468-19.976563 0-27.578125-3.277344-3.277344-8.472657-6.628907-15.792969-10.175781.03125-.496094.050781-.992188.050781-1.492188 0-12.957031-10.542969-23.5-23.5-23.5-.511719 0-1.015625.023438-1.515625.054688-3.5625-7.355469-6.90625-12.550782-10.152344-15.800782-7.601562-7.601562-19.972656-7.601562-27.578125 0-5.730468 5.734375-7.136718 14.175782-4.226562 21.238282-7.054688 2.941406-12.027344 9.902343-12.027344 18.007812zm73.230469 15.394531c6.804687 3.371094 9.722656 5.695313 10.90625 6.878907.851562.851562 1.316406 1.980468 1.316406 3.183593 0 1.199219-.464844 2.332031-1.316406 3.179688-1.753907 1.757812-4.609375 1.757812-6.363281.003906-1.121094-1.121094-3.28125-3.828125-6.4375-10.078125-.105469-.3125-.207032-.617188-.320313-.933594.789063-.695312 1.527344-1.441406 2.214844-2.234375zm-17.730469 25.105469c-2.480469 0-4.5-2.019531-4.5-4.5 0-1.574219.382812-4.996094 2.546875-11.605469.152344-.308593.308594-.628906.460937-.945312.496094.03125.988282.050781 1.492188.050781.511719 0 1.015625-.023438 1.515625-.054688.152344.3125.304687.628907.457031.933594 2.148438 6.578125 2.527344 10.023438 2.527344 11.621094 0 2.480469-2.019531 4.5-4.5 4.5zm0-49c4.6875 0 8.5 3.8125 8.5 8.5s-3.8125 8.5-8.5 8.5-8.5-3.8125-8.5-8.5 3.8125-8.5 8.5-8.5zm-15.808594 27.0625c-3.148437 6.214844-5.328125 8.9375-6.464844 10.074219-1.753906 1.757812-4.609374 1.753906-6.363281 0-1.753906-1.753907-1.753906-4.609375 0-6.363281 1.117188-1.121094 3.824219-3.28125 10.074219-6.4375.3125-.105469.617188-.207032.9375-.316407.664062.75 1.371094 1.460938 2.128906 2.125-.109375.3125-.207031.613281-.3125.917969zm-12.828125-47.199219c.875-.878906 2.027344-1.316406 3.179688-1.316406 1.152343 0 2.304687.4375 3.183593 1.316406 1.167969 1.167969 3.472657 4.070313 6.859376 10.917969-.789063.691406-1.535157 1.433594-2.230469 2.222656-.3125-.109375-.613281-.210937-.921875-.3125-6.210938-3.148437-8.933594-5.328125-10.070313-6.464844-1.753906-1.753906-1.753906-4.609374 0-6.363281zm-7.363281 24.136719c1.574219 0 4.996094.382812 11.605469 2.550781.308593.152344.628906.304688.945312.460938-.03125.492187-.050781.988281-.050781 1.488281 0 .511719.023438 1.015625.054688 1.515625-.3125.152344-.625.304687-.929688.453125-6.582031 2.152344-10.03125 2.53125-11.625 2.53125-2.480469 0-4.5-2.019531-4.5-4.5s2.019531-4.5 4.5-4.5zm0 0"/><path d="m416 440.214844c-3-8.699219-8.714844-20.257813-14.460938-26.003906-7.601562-7.601563-19.847656-7.601563-27.453124 0-7.601563 7.605468-7.539063 20.226562.0625 27.828124 5.695312 5.691407 17.390624 10.960938 26.121093 14.960938h-368.539062c8.730469-4 20.367187-9.269531 26.058593-14.960938 7.601563-7.605468 7.601563-20.101562 0-27.703124-7.601562-7.601563-20.226562-7.664063-27.828124-.0625-5.742188 5.746093-10.960938 17.242187-14.960938 25.941406v-96.214844h-15v128h32v40h15v-40h17v40h15v-40h17v40h15v-40h17v40h15v-40h17v40h15v-40h17v40h15v-40h17v40h15v-40h17v40h15v-40h17v40h15v-40h17v40h15v-40h17v40h15v-40h17v40h15v-40h32v-288h-15zm-31.183594-9.03125c-1.753906-1.753906-1.753906-4.609375 0-6.363282.878906-.878906 2.03125-1.316406 3.183594-1.316406s2.304688.4375 3.183594 1.316406c2.777344 2.777344 6.042968 8.84375 8.953125 15.300782-6.488281-2.929688-12.578125-6.195313-15.320313-8.9375zm-344-6.367188c.878906-.875 2.03125-1.3125 3.183594-1.3125s2.304688.4375 3.183594 1.3125c1.753906 1.753906 1.753906 4.609375 0 6.363282-2.742188 2.746093-8.835938 6.015624-15.324219 8.941406 2.910156-6.453125 6.175781-12.519532 8.957031-15.304688zm0 0"/><path d="m399 41v-41h-15v41h-17v-41h-15v41h-17v-41h-15v41h-17v-41h-15v41h-17v-41h-15v41h-17v-41h-15v41h-17v-41h-15v41h-17v-41h-15v41h-17v-41h-15v41h-17v-41h-15v41h-17v-41h-15v41h-17v-41h-15v41h-32v287h15v-256.269531c4 8.730469 9.269531 20.367187 14.960938 26.058593 3.800781 3.800782 8.921874 5.703126 13.914062 5.703126s10.050781-1.902344 13.851562-5.703126c7.601563-7.605468 7.632813-19.976562.03125-27.578124l.015626.25c-5.746094-5.746094-17.289063-11.460938-25.988282-14.460938h368.429688c-8.699219 3-20.214844 8.714844-26.214844 14.460938v-.125c-7 7.605468-7.496094 19.910156.105469 27.515624 3.800781 3.800782 8.847656 5.671876 13.839843 5.671876 4.996094 0 9.765626-1.917969 13.566407-5.71875 5.691406-5.695313 11.488281-17.34375 14.488281-26.074219v96.269531h15v-127zm-351.816406 39.816406c1.753906 1.753906 1.753906 4.609375 0 6.363282-1.753906 1.757812-4.609375 1.757812-6.363282.003906-2.742187-2.746094-6.011718-8.832032-8.941406-15.320313 6.457032 2.910157 12.523438 6.175781 15.304688 8.953125zm344 6.367188c-1.757813 1.753906-4.613282 1.753906-6.367188 0s-1.753906-4.609375 0-6.367188v.003906c2.78125-2.78125 8.851563-6.046874 15.308594-8.960937-2.925781 6.488281-6.195312 12.574219-8.941406 15.324219zm0 0"/><path d="m151.5 256c0-12.957031-10.542969-23.5-23.5-23.5s-23.5 10.542969-23.5 23.5 10.542969 23.5 23.5 23.5 23.5-10.542969 23.5-23.5zm-23.5 8.5c-4.6875 0-8.5-3.8125-8.5-8.5s3.8125-8.5 8.5-8.5 8.5 3.8125 8.5 8.5-3.8125 8.5-8.5 8.5zm0 0"/><path d="m327.5 256c0-12.957031-10.542969-23.5-23.5-23.5s-23.5 10.542969-23.5 23.5 10.542969 23.5 23.5 23.5 23.5-10.542969 23.5-23.5zm-32 0c0-4.6875 3.8125-8.5 8.5-8.5s8.5 3.8125 8.5 8.5-3.8125 8.5-8.5 8.5-8.5-3.8125-8.5-8.5zm0 0"/><path d="m192.5 168c0 12.957031 10.542969 23.5 23.5 23.5s23.5-10.542969 23.5-23.5-10.542969-23.5-23.5-23.5-23.5 10.542969-23.5 23.5zm23.5-8.5c4.6875 0 8.5 3.8125 8.5 8.5s-3.8125 8.5-8.5 8.5-8.5-3.8125-8.5-8.5 3.8125-8.5 8.5-8.5zm0 0"/><path d="m239.5 344c0-12.957031-10.542969-23.5-23.5-23.5s-23.5 10.542969-23.5 23.5 10.542969 23.5 23.5 23.5 23.5-10.542969 23.5-23.5zm-23.5 8.5c-4.6875 0-8.5-3.8125-8.5-8.5s3.8125-8.5 8.5-8.5 8.5 3.8125 8.5 8.5-3.8125 8.5-8.5 8.5zm0 0"/><path d="m122.695312 173.304688 10.605469-10.609376 40 40-10.605469 10.609376zm0 0"/><path d="m258.691406 309.304688 10.609375-10.609376 40 40-10.609375 10.609376zm0 0"/><path d="m258.695312 202.699219 40-40 10.605469 10.605469-40 40zm0 0"/><path d="m122.699219 338.679688 40-40 10.605469 10.605468-40 40zm0 0"/><path d="m40 200h15v16h-15zm0 0"/><path d="m40 264h15v16h-15zm0 0"/><path d="m376 232h15v16h-15zm0 0"/><path d="m376 296h15v16h-15zm0 0"/><path d="m256 81h16v15h-16zm0 0"/><path d="m192 81h16v15h-16zm0 0"/><path d="m224 417h16v15h-16zm0 0"/><path d="m160 417h16v15h-16zm0 0"/><path d="m176.757812 216.753906c-5.734374 5.734375-7.140624 14.175782-4.230468 21.238282-7.054688 2.941406-12.027344 9.902343-12.027344 18.007812s4.972656 15.066406 12.027344 18.007812c-2.910156 7.0625-1.503906 15.503907 4.230468 21.238282 3.800782 3.800781 8.792969 5.699218 13.785157 5.699218 2.535156 0 5.070312-.496093 7.449219-1.476562 2.941406 7.054688 9.902343 12.03125 18.007812 12.03125s15.066406-4.976562 18.007812-12.03125c2.378907.980469 4.914063 1.476562 7.445313 1.476562 4.996094 0 9.988281-1.898437 13.789063-5.699218 5.734374-5.734375 7.140624-14.175782 4.230468-21.238282 7.050782-2.941406 12.027344-9.902343 12.027344-18.007812s-4.976562-15.066406-12.027344-18.007812c2.910156-7.0625 1.503906-15.503907-4.230468-21.238282-5.730469-5.730468-14.171876-7.136718-21.234376-4.226562-2.941406-7.054688-9.902343-12.027344-18.007812-12.027344s-15.070312 4.976562-18.007812 12.027344c-7.066407-2.910156-15.503907-1.503906-21.234376 4.226562zm67.878907 67.882813c-1.753907 1.757812-4.609375 1.757812-6.363281.003906-1.121094-1.121094-3.28125-3.828125-6.4375-10.078125-.105469-.3125-.207032-.617188-.316407-.933594.75-.664062 1.460938-1.375 2.125-2.132812.3125.109375.613281.207031.917969.3125 6.21875 3.148437 8.941406 5.332031 10.078125 6.464844.847656.851562 1.316406 1.980468 1.316406 3.183593 0 1.199219-.46875 2.332031-1.320312 3.179688zm11.863281-28.636719c0 2.480469-2.019531 4.5-4.5 4.5-1.574219 0-4.996094-.382812-11.609375-2.550781-.308594-.152344-.625-.304688-.941406-.460938.03125-.492187.050781-.988281.050781-1.488281 0-.511719-.023438-1.015625-.054688-1.519531.3125-.148438.625-.300781.933594-.453125 6.578125-2.148438 10.027344-2.527344 11.621094-2.527344 2.480469 0 4.5 2.019531 4.5 4.5zm-24.691406-18.5625c3.148437-6.214844 5.328125-8.941406 6.464844-10.074219.878906-.878906 2.027343-1.316406 3.179687-1.316406s2.308594.4375 3.183594 1.316406c1.753906 1.753907 1.753906 4.609375 0 6.363281-1.121094 1.121094-3.824219 3.28125-10.074219 6.4375-.3125.105469-.621094.207032-.9375.316407-.664062-.753907-1.371094-1.460938-2.128906-2.125.109375-.3125.207031-.613281.3125-.917969zm-15.808594 59.0625c-2.480469 0-4.5-2.019531-4.5-4.5 0-1.574219.382812-4.996094 2.546875-11.605469.152344-.308593.308594-.628906.460937-.945312.496094.03125.988282.050781 1.492188.050781.511719 0 1.015625-.023438 1.515625-.054688.152344.3125.304687.628907.453125.933594 2.152344 6.578125 2.53125 10.023438 2.53125 11.621094 0 2.480469-2.019531 4.5-4.5 4.5zm0-81c2.480469 0 4.5 2.019531 4.5 4.5 0 1.574219-.382812 4.996094-2.546875 11.605469-.152344.308593-.308594.628906-.464844.949219-.492187-.03125-.988281-.054688-1.488281-.054688-.511719 0-1.015625.023438-1.515625.054688-.152344-.3125-.304687-.625-.457031-.929688-2.148438-6.582031-2.527344-10.027344-2.527344-11.625 0-2.480469 2.019531-4.5 4.5-4.5zm0 32c4.6875 0 8.5 3.8125 8.5 8.5s-3.8125 8.5-8.5 8.5-8.5-3.8125-8.5-8.5 3.8125-8.5 8.5-8.5zm-40.5 8.5c0-2.480469 2.019531-4.5 4.5-4.5 1.574219 0 4.996094.382812 11.605469 2.550781.308593.152344.628906.304688.945312.460938-.03125.492187-.050781.988281-.050781 1.488281 0 .511719.023438 1.015625.054688 1.515625-.3125.152344-.625.304687-.929688.453125-6.582031 2.152344-10.03125 2.53125-11.625 2.53125-2.480469 0-4.5-2.019531-4.5-4.5zm24.691406 18.5625c-3.148437 6.214844-5.328125 8.9375-6.464844 10.074219-1.753906 1.753906-4.609374 1.753906-6.363281 0-1.753906-1.753907-1.753906-4.609375 0-6.363281 1.117188-1.121094 3.824219-3.28125 10.074219-6.4375.3125-.105469.617188-.207032.9375-.316407.664062.75 1.371094 1.460938 2.128906 2.125-.109375.3125-.207031.613281-.3125.917969zm-.027344-37.125c.109376.3125.207032.617188.320313.9375-.753906.664062-1.464844 1.375-2.128906 2.128906-.3125-.109375-.613281-.210937-.921875-.3125-6.210938-3.148437-8.933594-5.328125-10.070313-6.464844-1.753906-1.753906-1.753906-4.609374 0-6.363281.875-.878906 2.027344-1.316406 3.179688-1.316406 1.152343 0 2.304687.4375 3.183593 1.316406 1.121094 1.117188 3.28125 3.824219 6.4375 10.074219zm0 0"/><path d="m391.242188 352.753906c-5.730469-5.730468-14.171876-7.136718-21.234376-4.226562-2.941406-7.054688-9.902343-12.027344-18.007812-12.027344s-15.066406 4.976562-18.007812 12.027344c-7.0625-2.910156-15.503907-1.503906-21.234376 4.226562-5.734374 5.734375-7.140624 14.175782-4.230468 21.238282-7.054688 2.941406-12.027344 9.902343-12.027344 18.007812s4.972656 15.066406 12.027344 18.007812c-2.910156 7.0625-1.503906 15.503907 4.230468 21.238282 3.800782 3.800781 8.792969 5.699218 13.785157 5.699218 4.996093 0 9.988281-1.898437 13.789062-5.703124 3.25-3.246094 6.589844-8.445313 10.152344-15.796876.5.03125 1.003906.054688 1.515625.054688 12.957031 0 23.5-10.542969 23.5-23.5 0-.5-.019531-.996094-.050781-1.488281 7.316406-3.550781 12.515625-6.898438 15.792969-10.179688 7.605468-7.601562 7.605468-19.972656 0-27.578125zm-67.878907 10.609375c.875-.878906 2.027344-1.316406 3.179688-1.316406 1.152343 0 2.304687.4375 3.183593 1.316406 1.136719 1.132813 3.316407 3.859375 6.464844 10.074219.101563.304688.203125.605469.3125.917969-.757812.664062-1.464844 1.371093-2.128906 2.125-.316406-.109375-.625-.210938-.9375-.316407-6.25-3.15625-8.957031-5.316406-10.074219-6.4375-1.753906-1.753906-1.753906-4.609374 0-6.363281zm-11.863281 28.636719c0-2.480469 2.019531-4.5 4.5-4.5 1.597656 0 5.042969.378906 11.625 2.53125.304688.148438.617188.300781.929688.453125-.03125.5-.054688 1.003906-.054688 1.515625 0 .5.019531.996094.050781 1.492188-.316406.152343-.632812.304687-.941406.457031-6.613281 2.167969-10.035156 2.550781-11.609375 2.550781-2.480469 0-4.5-2.019531-4.5-4.5zm18.226562 28.636719c-1.753906 1.757812-4.609374 1.757812-6.363281 0-.851562-.847657-1.320312-1.976563-1.320312-3.179688s.46875-2.332031 1.320312-3.183593c1.132813-1.136719 3.855469-3.316407 10.074219-6.464844.308594-.105469.609375-.203125.917969-.3125.695312.789062 1.441406 1.53125 2.230469 2.21875-3.386719 6.847656-5.691407 9.753906-6.859376 10.921875zm22.273438-69.136719c2.480469 0 4.5 2.019531 4.5 4.5 0 1.597656-.378906 5.042969-2.53125 11.621094-.148438.308594-.300781.621094-.453125.933594-.5-.03125-1.007813-.054688-1.515625-.054688-.503906 0-.996094.023438-1.492188.054688-.152343-.320313-.308593-.640626-.460937-.949219-2.164063-6.609375-2.546875-10.03125-2.546875-11.605469 0-2.480469 2.019531-4.5 4.5-4.5zm0 49c-4.6875 0-8.5-3.8125-8.5-8.5s3.8125-8.5 8.5-8.5 8.5 3.8125 8.5 8.5-3.8125 8.5-8.5 8.5zm28.636719-30.773438c-1.183594 1.183594-4.101563 3.507813-10.902344 6.878907-.6875-.792969-1.429687-1.539063-2.214844-2.230469.109375-.320312.210938-.625.316407-.9375 3.15625-6.25 5.316406-8.957031 6.4375-10.074219.878906-.878906 2.03125-1.316406 3.183593-1.316406 1.152344 0 2.304688.4375 3.179688 1.316406 1.753906 1.753907 1.753906 4.609375 0 6.363281zm0 0"/></svg>