<svg height="512pt" viewBox="0 -27 512.00034 512" width="512pt" xmlns="http://www.w3.org/2000/svg"><path d="m173.359375 204.226562h-83.566406v-28.636718c0-10.179688 8.25-18.429688 18.429687-18.429688h46.707032c10.179687 0 18.429687 8.25 18.429687 18.429688zm0 0" fill="#516980"/><path d="m436.253906 363.160156h-44.757812v-267.410156c0-23.980469-19.511719-43.488281-43.492188-43.488281h-44.703125c-23.980469 0-43.492187 19.507812-43.492187 43.488281v163.378906h-44.757813v-163.378906c0-48.660156 39.585938-88.25 88.246094-88.25h44.707031c48.660156 0 88.25 39.589844 88.25 88.25zm0 0" fill="#a7b6c5"/><path d="m391.496094 95.75v37.050781h44.757812v-37.050781c0-48.660156-39.585937-88.25-88.246094-88.25h-44.707031c-48.660156 0-88.25 39.589844-88.25 88.25v163.378906h44.761719v-163.378906c0-23.980469 19.507812-43.488281 43.488281-43.488281h44.707031c23.976563 0 43.488282 19.507812 43.488282 43.488281zm0 0" fill="#516980"/><path d="m259.8125 183.425781c-16.949219-10.226562-33.183594-16.964843-44.761719-21.050781v96.753906h44.761719zm0 0" fill="#3e4f61"/><path d="m249.300781 445.609375h-32.675781c-10.292969 0-18.636719-8.34375-18.636719-18.636719v-57.242187h69.953125v57.242187c0 10.292969-8.347656 18.636719-18.640625 18.636719zm0 0" fill="#516980"/><path d="m7.5 255.949219v105.371093c0 30.316407 24.578125 54.894532 54.890625 54.894532h184.917969c30.316406 0 54.890625-24.578125 54.890625-54.894532v-24.597656c0-78.234375-63.421875-141.65625-141.65625-141.65625h-92.160157c-33.625 0-60.882812 27.257813-60.882812 60.882813zm0 0" fill="#ff938a"/><path d="m168.296875 386.660156c0 35.378906-28.679687 64.058594-64.054687 64.058594-35.378907 0-64.058594-28.679688-64.058594-64.058594 0-35.375 28.679687-64.054687 64.058594-64.054687 35.375 0 64.054687 28.679687 64.054687 64.054687zm0 0" fill="#6a829a"/><path d="m461.519531 398.339844h-95.289062v-24.792969c0-10.550781 8.550781-19.101563 19.101562-19.101563h57.085938c10.550781 0 19.105469 8.550782 19.105469 19.101563v24.792969zm0 0" fill="#6a829a"/><path d="m472.503906 381.554688h-117.257812c-12.351563 0-23.203125 8.203124-26.570313 20.085937l-4.578125 16.164063c-3.953125 13.945312 6.523438 27.804687 21.019532 27.804687h137.511718c14.5 0 24.976563-13.859375 21.023438-27.804687l-4.578125-16.164063c-3.367188-11.882813-14.21875-20.085937-26.570313-20.085937zm0 0" fill="#889cb0"/><path d="m173.359375 195.636719v76.210937c0 28.03125 22.722656 50.757813 50.757813 50.757813h77.386718c-6.667968-67.394531-60.574218-120.90625-128.144531-126.96875zm0 0" fill="#fb695b"/><path d="m48.527344 294.828125c22.789062 0 41.265625-18.472656 41.265625-41.265625v-58.496094h-21.410157c-33.625 0-60.882812 27.257813-60.882812 60.882813v38.878906zm0 0" fill="#889cb0"/><path d="m133.082031 386.660156c0 15.929688-12.914062 28.839844-28.839843 28.839844-15.925782 0-28.835938-12.910156-28.835938-28.839844 0-15.925781 12.910156-28.835937 28.835938-28.835937 15.925781 0 28.839843 12.910156 28.839843 28.835937zm0 0" fill="#516980"/><path d="m510.867188 415.757812-4.578126-16.160156c-9.488281-28.929687-37.269531-26.050781-37.269531-26.050781 0-14.21875-11.214843-25.871094-25.265625-26.570313v-251.226562c0-13.164062-2.636718-25.925781-7.835937-37.933594-1.644531-3.800781-6.0625-5.550781-9.863281-3.902344-3.800782 1.644532-5.546876 6.0625-3.902344 9.863282 4.382812 10.113281 6.601562 20.871094 6.601562 31.972656v29.550781h-29.757812v-29.550781c0-28.117188-22.875-50.988281-50.988282-50.988281h-44.707031c-28.117187 0-50.988281 22.871093-50.988281 50.988281v123.464844c-9.128906-7.144532-19.109375-13.246094-29.761719-18.132813v-105.332031c0-44.527344 36.222657-80.75 80.75-80.75h44.707031c22.261719 0 43.007813 8.902344 58.421876 25.070312 2.859374 2.996094 7.609374 3.109376 10.605468.25 2.996094-2.859374 3.109375-7.605468.253906-10.601562-18.273437-19.164062-42.878906-29.71875-69.28125-29.71875h-44.707031c-52.796875 0-95.75 42.953125-95.75 95.75v99.410156c-8.578125-2.855468-17.503906-4.949218-26.691406-6.203125v-13.367187c0-14.300782-11.632813-25.929688-25.929687-25.929688h-46.707032c-14.296875 0-25.929687 11.628906-25.929687 25.929688v11.976562h-13.910157c-37.707031 0-68.382812 30.675782-68.382812 68.382813v105.371093c0 26.464844 16.308594 49.605469 40.90625 58.585938 11.992188 22.753906 35.875 38.3125 63.335938 38.3125 25.902343 0 48.636718-13.835938 61.199218-34.503906h25.046875s-1.878906 29.398437 26.140625 29.398437h32.671875c14.414063 0 26.140625-11.726562 26.140625-26.140625v-9.988281c20.304688-10.304687 34.261719-31.378906 34.261719-55.664063v-24.597656c0-40.429687-16.175781-77.148437-42.390625-104.042968v-136.929688c0-19.84375 16.144531-35.988281 35.988281-35.988281h44.707031c19.84375 0 35.988282 16.144531 35.988282 35.988281v251.226562c-14.050782.699219-25.265625 12.347657-25.265625 26.570313 0 0-30.289063-1.539063-37.269531 26.050781l-4.582032 16.160156c-2.527344 8.929688-.769531 18.300782 4.828125 25.703126 5.597657 7.402343 14.132813 11.648437 23.410157 11.648437h137.511718c9.28125 0 17.816406-4.246094 23.414063-11.648437 5.597656-7.40625 7.355469-16.773438 4.824219-25.703126zm-330.007813-211.65625c57.308594 8.742188 102.796875 53.878907 112.089844 111.003907h-68.832031c-23.855469 0-43.261719-19.40625-43.261719-43.257813v-67.746094zm-83.566406-28.511718c0-6.027344 4.902343-10.929688 10.929687-10.929688h46.707032c6.027343 0 10.929687 4.902344 10.929687 10.929688v12.082031c-1.765625-.0625-68.566406-.105469-68.566406-.105469zm-28.910157 26.976562h13.910157v50.996094c0 18.621094-15.148438 33.765625-33.765625 33.765625h-33.527344v-31.378906c0-29.4375 23.945312-53.382813 53.382812-53.382813zm180.917969 235.542969h-32.675781c-13.023438 0-11.136719-14.394531-11.136719-14.394531h41.820313c4.503906 0 8.894531-.492188 13.132812-1.402344 0 0 3.402344 15.796875-11.140625 15.796875zm45.402344-76.789063c0 26.132813-21.261719 47.394532-47.394531 47.394532h-75.003906c2.257812-6.953125 3.492187-14.359375 3.492187-22.050782 0-39.457031-32.097656-71.558593-71.554687-71.558593-13.046876 0-25.820313 3.546875-36.9375 10.257812-3.542969 2.140625-4.683594 6.75-2.542969 10.296875s6.753906 4.6875 10.296875 2.546875c8.777344-5.300781 18.867187-8.101562 29.183594-8.101562 31.183593 0 56.554687 25.371093 56.554687 56.558593 0 31.183594-25.371094 56.554688-56.554687 56.554688-31.1875 0-56.558594-25.371094-56.558594-56.554688 0-9.875 2.582031-19.59375 7.464844-28.101562 2.0625-3.59375.820312-8.175781-2.773438-10.238281-3.589844-2.0625-8.132812-.796875-10.238281 2.773437-12.972657 22.007813-9.054688 44.011719-8.332031 48.078125-11.640626-8.75-18.804688-22.570312-18.804688-37.855469v-58.992187h33.527344c26.890625 0 48.765625-21.875 48.765625-48.765625v-50.996094s66.800781.046875 68.566406.117188v69.164062c0 32.125 26.132813 58.257813 58.257813 58.257813h70.421874c.105469 2.191406.164063 31.214843.164063 31.214843zm134.050781-221.015624v206.640624h-29.757812v-206.640624zm-55.027344 233.242187c0-6.398437 5.207032-11.601563 11.605469-11.601563h57.085938c6.398437 0 11.605469 5.203126 11.605469 11.601563v.507813h-80.292969v-.507813zm120.351563 58.867187c-2.738281 3.621094-6.910156 5.695313-11.449219 5.695313h-137.511718c-4.535157 0-8.710938-2.074219-11.445313-5.695313-2.738281-3.621093-3.597656-8.199218-2.359375-12.566406l4.578125-16.160156c2.441406-8.613281 10.398437-14.632812 19.355469-14.632812h117.257812c8.953125 0 16.914063 6.019531 19.355469 14.632812l4.578125 16.160156c1.238281 4.367188.375 8.945313-2.359375 12.566406zm0 0"/><path d="m104.242188 423c20.035156 0 36.339843-16.300781 36.339843-36.335938 0-20.039062-16.304687-36.339843-36.339843-36.339843-20.039063 0-36.339844 16.300781-36.339844 36.339843 0 20.035157 16.300781 36.335938 36.339844 36.335938zm0-57.675781c11.765624 0 21.339843 9.570312 21.339843 21.335937s-9.574219 21.339844-21.339843 21.339844c-11.765626 0-21.339844-9.574219-21.339844-21.339844 0-11.761718 9.574218-21.335937 21.339844-21.335937zm0 0"/></svg>