<svg height="512" viewBox="0 0 60 61" width="512" xmlns="http://www.w3.org/2000/svg"><g id="Page-1" fill="none" fill-rule="evenodd"><g id="039---Pressure-Washer" fill-rule="nonzero"><g id="Icons" transform="translate(1 1)"><path id="Shape" d="m24 57.13c-1.2748375 1.2126169-2.9706022 1.8830355-4.73 1.87h-8.52c-1.76690723.0113456-3.46945501-.6625049-4.75-1.88-1.4441711-1.3548959-2.16340425-3.3123965-1.94-5.28l.33-2.84 1.28-11c.22003267-1.873505 1.03694031-3.6265256 2.33-5 3.5445179-3.7066421 9.3604745-4.0175855 13.28-.71.2525385.2236053.4928847.4606134.72.71 1.2973979 1.3727987 2.1209656 3.1250704 2.35 5l1.28 11 .37 2.84c.2132431 1.9811433-.5294119 3.9454658-2 5.29z" fill="#ffdc00"/><g fill="#3f51b5"><path id="Shape" d="m22 26v7c-.2276487-.2425514-.4679854-.472874-.72-.69-3.9143748-3.3128173-9.7300297-3.0106485-13.28.69v-7c0-2.7614237 2.2385763-5 5-5h4c2.7614237 0 5 2.2385763 5 5z"/><path id="Shape" d="m6 57.12v.88c0 .5522847-.44771525 1-1 1h-4c-.55228475 0-1-.4477153-1-1v-8c0-.5522847.44771525-1 1-1h3.39l-.33 2.84c-.22340425 1.9676035.4958289 3.9251041 1.94 5.28z"/><path id="Shape" d="m30 50v8c0 .5522847-.4477153 1-1 1h-4c-.5522847 0-1-.4477153-1-1v-.87c1.4705881-1.3445342 2.2132431-3.3088567 2-5.29l-.37-2.84h3.37c.5522847 0 1 .4477153 1 1z"/></g><path id="Shape" d="m58 52c0 3.8659932-3.1340068 7-7 7s-7-3.1340068-7-7c-4.0101698-.2398661-7.3048428-3.2545338-7.8990048-7.2276899-.5941619-3.9731561 1.6744457-7.8197794 5.4390048-9.2223101l-1.12-4.75 3.47-1.63 5.85 7.6c.8322632-.5042589 1.7868922-.7705866 2.76-.77 2.5163727.0056411 4.7079855 1.7183478 5.3216285 4.1587588.6136429 2.440411-.5072086 4.9860391-2.7216285 6.1812412 1.8264065 1.3055467 2.9072063 3.4149697 2.9 5.66z" fill="#02a9f4"/><path id="Shape" d="m46.74 36.76c.7345074-.4507832 1.5695366-.7119446 2.43-.76l-5.28-6.86-2.2 1z" fill="#0377bc"/><path id="Shape" d="m55.1 46.34c2.2144199-1.1952021 3.3352714-3.7408302 2.7216285-6.1812412-.613643-2.440411-2.8052558-4.1531177-5.3216285-4.1587588-.5070982.003199-1.0115194.073818-1.5.21 2.1589695.6058808 3.7324663 2.4638657 3.974539 4.693135.2420727 2.2292692-.8959406 4.3816925-2.874539 5.436865 1.8264065 1.3055467 2.9072063 3.4149697 2.9 5.66.0012229 3.2889681-2.287431 6.1352213-5.5 6.84.4931668.1047782.995828.1583954 1.5.16 3.028149-.0081119 5.7077481-1.9624207 6.6407253-4.8432722.9329772-2.8808516-.0922309-6.0349794-2.5407253-7.8167278z" fill="#0377bc"/><path id="Shape" d="m43.84 29.19-3.62 1.69c-.485005.222744-1.0389198.242398-1.5384921.0545889-.4995722-.1878091-.9033572-.5675007-1.1215079-1.0545889l-2.06-4.38c-.3078141-.6684441-.4121466-1.4126829-.3-2.14l.07-.47c.079029-.5136017.26652-1.0044872.55-1.44.3759758-.598426.9180286-1.0744596 1.56-1.37.5058899-.2407835 1.0597444-.3638623 1.62-.36.1598459-.009932.3201541-.009932.48 0 .5129619.0697261 1.0063337.2432569 1.45.51l.41.25c.6302412.380542 1.131854.9413729 1.44 1.61l2.06 4.41c.2323645.48819.2571765 1.0496589.068781 1.5564427-.1883955.5067839-.573946.9157017-1.068781 1.1335573z" fill="#607d8b"/><path id="Shape" d="m39.45 19.75c-.1598459-.009932-.3201541-.009932-.48 0-.5493769-.0024972-1.0924516.1170475-1.59.35-.6419714.2955404-1.1840242.771574-1.56 1.37l-4.9-10.5 3.63-1.69z" fill="#7f8e94"/><path id="Shape" d="m34.55 9.25-3.63 1.69c-.4998225.2346165-1.0952085.0197404-1.33-.48l-3-6.35c-.112011-.24126238-.1232852-.51720963-.0313289-.76680539.0919563-.24959575.2795649-.45227039.5213289-.56319461l3.62-1.69c.2412624-.11201103.5172096-.12328524.7668054-.03132891.2495957.09195633.4522704.27956492.5631946.52132891l3 6.34c.2346165.49982254.0197404 1.09520853-.48 1.33z" fill="#607d8b"/><path id="Shape" d="m29.59 10.46-1.81.84c-.7223807.3405051-1.5507129.3789305-2.3015148.1067648-.7508018-.2721656-1.3620992-.8324568-1.6984852-1.5567648l-.41-.85c-.3405051-.72238071-.3789305-1.5507129-.1067648-2.30151476.2721656-.75080185.8324568-1.36209926 1.5567648-1.69848524l1.81-.85z" fill="#7f8e94"/><circle id="Oval" cx="15" cy="39" fill="#3f51b5" r="5"/></g><g id="Icons_copy" fill="#000"><path id="Shape" d="m11.75 55c-.5269088.0138915-1.0339617-.2013324-1.39-.59-.2543415-.2670121-.37546462-.6340519-.33-1 .0309441-.2639721-.04446865-.5294037-.20958299-.7376729-.16511434-.2082693-.40634572-.3422411-.67041701-.3723271-.27184691-.0425976-.54923426.0287035-.76684261.1971135-.21760835.1684099-.35620656.4190454-.38315739.6928865-.10458807.9299793.19804576 1.859758.83 2.55.74550114.8222563 1.810313 1.2817299 2.92 1.26.5522847 0 1-.4477153 1-1s-.4477153-1-1-1z"/><path id="Shape" d="m60 42.5c-.0055066-3.5875675-2.9124325-6.4944934-6.5-6.5-.8486875-.0022173-1.6889912.1678847-2.47.5l-4.75-6.18c.2335162-.271944.4164071-.5835358.54-.92.2710928-.746479.2351314-1.5699937-.1-2.29l-2.06-4.41c-.3931782-.8497102-1.0301803-1.5632918-1.83-2.05l-.41-.25c-.4005179-.2341771-.8311726-.4124951-1.28-.53l-4.38-9.39c.1012005-.1484916.181927-.3099447.24-.48.1837459-.49776763.1621623-1.04815033-.06-1.53l-2.94-6.32c-.2181507-.48708823-.6219357-.86677982-1.1215079-1.05458893-.4995723-.18780912-1.0534871-.16815505-1.5384921.05458893l-3.64 1.73c-.1437223.06542659-.2782101.14948147-.4.25-2.14-1.95-5.51-2.36-8.3-2.01-2.6.33-5.89 1.44-7.29 3.55-.7096061 1.06597212-.9109787 2.39136997-.55 3.62.4597742 1.44170756 1.3539111 2.706073 2.56 3.62 1.7514396 1.377984 3.6183427 2.6025119 5.58 3.66 1.8160722.9627635 3.545804 2.0802305 5.17 3.34 3.73 3.07 6.09 6.9 6.47 10.5.42 4.1-1.76 7.38-4.51 10.29l-.1-.81c-.2266528-1.9546371-1.0388352-3.7951191-2.33-5.28v-6.61c0-3.3137085-2.6862915-6-6-6h-4c-3.3137085 0-6 2.6862915-6 6v6.63c-1.28750743 1.4794113-2.09945458 3.3123907-2.33 5.26l-1.17 10.11h-2.5c-1.1045695 0-2 .8954305-2 2v8c0 1.1045695.8954305 2 2 2h4c.73934607-.003932 1.41620967-.4154343 1.76-1.07 1.21632766.7015188 2.5958699 1.0705463 4 1.07h8.52c1.4037096.0073871 2.7841632-.3584331 4-1.06.3396062.6382382.9972217 1.0435129 1.72 1.06h4c1.1045695 0 2-.8954305 2-2v-8c0-1.1045695-.8954305-2-2-2h-2.48l-.79-6.75c3.45-3.39 6.77-7.57 6.21-13-.43-4.12-3-8.44-7.19-11.84-1.7090587-1.3329825-3.5290287-2.5173012-5.44-3.54-1.8688292-1.0093349-3.645624-2.1804803-5.31-3.5-.8858207-.6527003-1.5520063-1.55954986-1.91-2.6-.215441-.67457727-.1124088-1.41052169.28-2 1-1.45 3.66-2.39 5.88-2.68s5.17 0 6.81 1.64l-.67.31c-.9635023.44736432-1.7094796 1.25961753-2.0734153 2.25762675s-.3159353 2.09979565.1334153 3.06237325l.43.9c.446312.9607132 1.2554886 1.7051557 2.25 2.07.4377329.1657043.9019532.250416 1.37.25.5843268-.0017066 1.1611844-.1314142 1.69-.38l1.16-.54c.2981204.1983142.6427829.3154995 1 .34l4.38 9.4c-.2069326.4193502-.3485674.8678603-.42 1.33l-.07.46c-.1432436.9252768-.0074642 1.8722511.39 2.72l2.06 4.42c.3358478.7200784.9436357 1.277517 1.69 1.55.320674.1164225.6588568.1772954 1 .18.1031322.0091181.2068678.0091181.31 0l.68 2.94c-3.7468636 1.8049737-5.8819146 5.8393029-5.2671047 9.952565.61481 4.1132621 3.8362144 7.3469611 7.9471047 7.977435.382912 3.4790299 2.9829348 6.3052318 6.4180304 6.9763424 3.4350955.6711106 6.9076382-.9687012 8.5718034-4.0477961 1.6641652-3.0790948 1.1335354-6.8825101-1.3098338-9.3885463 1.4567756-1.2376685 2.2884413-3.0585403 2.27-4.97zm-46-19.5h4c2.209139 0 4 1.790861 4 4v4.83c-3.626136-2.4457767-8.373864-2.4457767-12 0v-4.83c0-2.209139 1.790861-4 4-4zm-12 36v-8h2.27l-.2 1.73c-.24532451 2.0628473.41482793 4.1308386 1.81 5.67l.12.12v.48zm9.75 0c-1.6686869.0119868-3.26279404-.6904394-4.38-1.93-.99907891-1.1070401-1.47916726-2.5873125-1.32-4.07l1.61-13.88c.5722404-4.1448441 4.1567031-7.2049609 8.34-7.12 4.1870765-.0901016 7.777334 2.9712916 8.35 7.12l1.65 13.88c.1803647 1.4969371-.3017361 2.9980239-1.32 4.11-.11.12-.22.24-.34.35-1.0880453 1.0083846-2.5165307 1.5690651-4 1.57zm18.25-8v8h-4v-.46l.14-.14c1.41322-1.5306563 2.0919412-3.5996612 1.86-5.67l-.25-1.73zm7.1-30.32-3.85-8.26 1.81-.84 3.86 8.26c-.6615672.141224-1.2833201.4281869-1.82.84zm-4.93-17.68 3 6.34-3.67 1.66-3-6.34zm-3.81 8.4c-.4818497.2221623-1.0322324.2437459-1.53.06-.4927868-.173005-.89835-.5319105-1.13-1l-.42-.91c-.222744-.48500496-.242398-1.03891984-.0545889-1.53849208.1878091-.49957225.5675007-.90335718 1.0545889-1.12150792l.9-.42 2.08 4.53zm11.11 19.09-2.06-4.41c-.231205-.4888077-.3079475-1.0364703-.22-1.57l.07-.47c.1440077-.8959906.725375-1.661145 1.55-2.04.8252247-.3909201 1.792123-.3382486 2.57.14l.41.25c.4615628.2806831.830235.6910917 1.06 1.18l2.06 4.43c.1027779.2463777.1027779.5236223 0 .77-.0923599.2481478-.2793642.4495371-.52.56l-3.59 1.67c-.2437483.1107521-.5217279.119138-.7717091.0232806s-.4510848-.2879521-.5582909-.5332806zm16.16 16c-.3025471.163668-.4997393.471345-.5220812.8145983-.0223419.3432532.1333028.673896.4120812.8754017 2.2989215 1.665506 3.1159895 4.714235 1.9580773 7.3061822-1.1579121 2.5919471-3.9738748 4.0176761-6.7483649 3.4167141-2.7744901-.6009619-4.7481079-3.0641268-4.7297124-5.9028963.0009542-.5296773-.4112761-.9682202-.94-1-3.303692-.217767-6.0737405-2.5760344-6.8158625-5.8026516-.7421219-3.2266172.7192798-6.5581182 3.5958625-8.1973484l2.16 9.23c.1088118.4611676.5263385.7826631 1 .77.0763581.0097276.1536419.0097276.23 0 .5346344-.1285208.8652036-.664579.74-1.2l-3.39-14.45 2-.94 8.62 11.2c.1909314.248042.486992.3923716.8.39.2209494-.0006878.4354502-.0745323.61-.21.4353218-.3374567.5158001-.963399.18-1.4l-2.48-3.23c.3881512-.1042079.7881088-.1579837 1.19-.16 2.059357.003373 3.8536443 1.4042665 4.3564443 3.401303.5027999 1.9970365-.414205 4.0805604-2.2264443 5.058697z"/><path id="Shape" d="m16 34c-3.3137085 0-6 2.6862915-6 6s2.6862915 6 6 6 6-2.6862915 6-6-2.6862915-6-6-6zm0 10c-1.995571-.0239195-3.6681956-1.5151202-3.9200729-3.4948762-.2518774-1.979756.9940652-3.8422757 2.9200729-4.3651238v2.86c0 .5522847.4477153 1 1 1s1-.4477153 1-1v-2.86c1.9260077.5228481 3.1719503 2.3853678 2.9200729 4.3651238-.2518773 1.979756-1.9245019 3.4709567-3.9200729 3.4948762z"/></g></g></g></svg>