<svg height="512" viewBox="0 0 512 512" width="512" xmlns="http://www.w3.org/2000/svg"><g id="Filled_outline" data-name="Filled outline"><path d="m488 496v-118.37a48 48 0 0 0 -41.212-47.517l-70.788-10.113v-64h-80v64l-74.057 15.869a48 48 0 0 0 -37.943 46.931v113.2" fill="#fec9a3"/><path d="m376 307.856v-43.856h-80v43.856a71.963 71.963 0 0 0 80 0z" fill="#feb784"/><path d="m488 496v-118.37a48 48 0 0 0 -41.212-47.518l-70.788-10.112-17.143 48h-45.714l-17.143-48-74.058 15.869a48 48 0 0 0 -37.942 46.931v113.2" fill="#e0e0de"/><path d="m488 377.63v118.37h-304v-113.2a48 48 0 0 1 37.94-46.93l74.06-15.87 40 112 40-112 70.79 10.11a46.936 46.936 0 0 1 7.35 1.65 47.985 47.985 0 0 1 33.86 45.87z" fill="#49648e"/><path d="m488 377.63v118.37h-210.38c47.86-22.44 127.12-71.37 176.52-164.24a47.985 47.985 0 0 1 33.86 45.87z" fill="#425b82"/><path d="m416 168h-8v48h8a24 24 0 0 0 0-48z" fill="#feb784"/><path d="m256.4 168h-.4a24 24 0 0 0 0 48h8v-48z" fill="#feb784"/><path d="m408 160v72a72 72 0 0 1 -70.97 71.99c-.34.01-.69.01-1.03.01a72.006 72.006 0 0 1 -72-72v-72a72.006 72.006 0 0 1 72-72c.34 0 .69 0 1.03.01a72 72 0 0 1 70.97 71.99z" fill="#fec9a3"/><path d="m408 160v72a72 72 0 0 1 -70.97 71.99 71.981 71.981 0 0 0 38.97-63.99v-88a72.086 72.086 0 0 0 -38.97-63.99 72 72 0 0 1 70.97 71.99z" fill="#fec093"/><path d="m301.8 140.613a174.36 174.36 0 0 0 68.4 0l5.8-1.159 32 36.546v-16a72 72 0 0 0 -144 0v16l32-36.546z" fill="#95573a"/><path d="m265.871 326.456 6.129 73.544 43.661-24.949-19.661-71.051z" fill="#6d7e9b"/><path d="m356.339 375.051 43.661 24.949 6.306-75.671-30.306-20.329z" fill="#6d7e9b"/><path d="m424 115.9v28.1h-176v-28.1a83.9 83.9 0 0 1 83.9-83.9h8.2a83.878 83.878 0 0 1 57 22.35c.99.92 1.96 1.86 2.9 2.82a83.568 83.568 0 0 1 24 58.73z" fill="#ffb531"/><path d="m424 115.9v28.1h-114.84c29.86-21.79 61.34-51.06 87.94-89.65a83.627 83.627 0 0 1 26.9 61.55z" fill="#ffa912"/><path d="m432.61 153.1-96.61 6.9-96.61-6.9a16.571 16.571 0 0 1 -15.39-16.529 16.571 16.571 0 0 1 16.571-16.571h190.858a16.571 16.571 0 0 1 16.571 16.571 16.571 16.571 0 0 1 -15.39 16.529z" fill="#ffb531"/><path d="m360 88h-48v-48a24 24 0 0 1 24-24 24 24 0 0 1 24 24z" fill="#ffcb73"/><rect fill="#ffb531" height="312" rx="32" width="176" x="24" y="176"/><path d="m168 176h-2.933l-118.943 310.286a31.63 31.63 0 0 0 9.876 1.714h112a32 32 0 0 0 32-32v-248a32 32 0 0 0 -32-32z" fill="#ffa912"/><path d="m56 216h112v56h-112z" fill="#4db7e5"/><circle cx="112" cy="392" fill="#f98500" r="56"/><path d="m96 336h32v112h-32z" fill="#ff9419" transform="matrix(.707 .707 -.707 .707 309.99 35.618)"/><path d="m56 216h112v16h-112z" fill="#45a7d1"/><path d="m56 216h16v56h-16z" fill="#45a7d1"/><path d="m300 200a12 12 0 1 0 -12-12 12.013 12.013 0 0 0 12 12z"/><path d="m372 200a12 12 0 1 0 -12-12 12.013 12.013 0 0 0 12 12z"/><path d="m296 408h16v16h-16z"/><path d="m296 480h16v16h-16z"/><path d="m312 248h16.934a115.037 115.037 0 0 0 33.385-4.9l-4.638-15.313a99.062 99.062 0 0 1 -28.747 4.213h-16.934z"/><path d="m424 448h-64v16h64v32h16v-88h-16z"/><path d="m232 408h16v88h-16z"/><path d="m168 208h-112a8 8 0 0 0 -8 8v56a8 8 0 0 0 8 8h112a8 8 0 0 0 8-8v-56a8 8 0 0 0 -8-8zm-8 56h-96v-40h96z"/><path d="m56 296h16v16h-16z"/><path d="m88 296h16v16h-16z"/><path d="m120 296h16v16h-16z"/><path d="m152 296h16v16h-16z"/><path d="m168.568 358.059-22.627-22.628a8 8 0 0 0 -8-1.993 64.106 64.106 0 0 0 -84.507 84.509 8 8 0 0 0 1.993 7.994l22.627 22.628a8 8 0 0 0 8 1.993 64.106 64.106 0 0 0 84.507-84.509 8 8 0 0 0 -1.993-7.994zm-56.568-14.059a48.862 48.862 0 0 1 12.44 1.618l-58.822 58.822a48.856 48.856 0 0 1 -1.618-12.44 48.054 48.054 0 0 1 48-48zm-39.6 76.284 67.884-67.884 11.316 11.316-67.884 67.884zm39.6 19.716a48.862 48.862 0 0 1 -12.44-1.618l58.822-58.822a48.856 48.856 0 0 1 1.618 12.44 48.054 48.054 0 0 1 -48 48z"/><path d="m48 448h16v16h-16z"/><path d="m160 448h16v16h-16z"/><path d="m447.919 322.192-38.674-5.524-25.245-16.935v-3.767a79.8 79.8 0 0 0 32-63.966v-8a31.985 31.985 0 0 0 21.547-55.637 24.562 24.562 0 0 0 -5.637-48.348 91.927 91.927 0 0 0 -66.416-84.423 32 32 0 0 0 -58.988 0 91.927 91.927 0 0 0 -66.416 84.423 24.562 24.562 0 0 0 -5.637 48.348 31.985 31.985 0 0 0 21.547 55.637v8a79.793 79.793 0 0 0 32 63.967v4.018l-25.522 19.023v-.008l-42.211 9.045a56.014 56.014 0 0 0 -12.267 4.194v-124.239a40.045 40.045 0 0 0 -40-40h-112a40.045 40.045 0 0 0 -40 40v248a40.045 40.045 0 0 0 40 40h112a40.045 40.045 0 0 0 40-40v-105.18a40.078 40.078 0 0 1 15.619-7.129l35.035-7.507 5.374 64.48a8 8 0 0 0 11.941 6.282l35.386-20.22 16.645 46.658v62.616h16v-62.616l16.645-46.658 35.386 20.22a8 8 0 0 0 11.941-6.282l5.6-67.215 32.084 4.583a40.2 40.2 0 0 1 34.344 39.598v118.37h16v-118.37a56.276 56.276 0 0 0 -48.081-55.438zm-255.919 133.808a24.027 24.027 0 0 1 -24 24h-112a24.027 24.027 0 0 1 -24-24v-248a24.027 24.027 0 0 1 24-24h112a24.027 24.027 0 0 1 24 24zm160.2-96h-32.4l-15.04-54.353a80.006 80.006 0 0 0 62.486 0zm-4.719 16-11.481 32.19-11.483-32.19zm68.519-168v-32a16 16 0 0 1 0 32zm-96-160a16 16 0 0 1 32 0v40h-32zm-48 29.266v26.734h16v-41.992a76.171 76.171 0 0 1 16-8.685v42.677a8 8 0 0 0 8 8h48a8 8 0 0 0 8-8v-42.677a76.22 76.22 0 0 1 16 8.685v41.992h16v-26.735a75.309 75.309 0 0 1 15.9 42.735h-159.8a75.3 75.3 0 0 1 15.9-42.734zm-40 67.3a8.581 8.581 0 0 1 8.571-8.57h190.858a8.571 8.571 0 0 1 .611 17.12l-96.04 6.863-96.039-6.859a8.6 8.6 0 0 1 -7.961-8.55zm8 47.434a16.019 16.019 0 0 1 16-16v32a16.019 16.019 0 0 1 -16-16zm32 40v-60.551l63.43 4.53q.285.021.57.021t.57-.021l63.43-4.53v60.551a64 64 0 0 1 -128 0zm2.212 98.217 17.2-12.817 14.707 53.148-.513.186.256.705-26.932 15.387zm118.858 56.609-26.928-15.387.256-.705-.513-.186 14.868-53.727 17.19 11.532z"/></g></svg>