<svg id="_x33_0" enable-background="new 0 0 64 64" height="512" viewBox="0 0 64 64" width="512" xmlns="http://www.w3.org/2000/svg"><g><g><g><g><path d="m31 52-5-5v-1c0-1.66 1.34-3 3-3h1v-7c0-.24.09-.47.23-.64l-6.23-.36-.59.59c-.9.9-2.13 1.41-3.41 1.41s-2.51-.51-3.41-1.41l-.59-.59-2 .23v11.77l-1.88-1.88c-.62-.62-1.34-1.11-2.12-1.46v-.01-7.98l-.24.03c-1.33.14-2.61.57-3.76 1.25-.4.24-.79.51-1.15.81-.9.74-1.61 1.66-2.1 2.68-.49 1.03-.75 2.16-.75 3.32v18.24h17 17v-16.46c0 .93-.37 1.83-1.04 2.5z" fill="#b4dd7f"/></g><g><path d="m42 24v12l-8.1-.44c.06.13.1.28.1.44v6.35.01c.36.17.68.4.96.68s.51.6.68.96h.01 8.35c3.31 0 6-2.69 6-6v-14z" fill="#b4dd7f"/></g></g><g><path d="m51.83 4h2.17v6h-3c-.55 0-1-.45-1-1v-.83-.34-2.83c0-.55.45-1 1-1z" fill="#d3a06c"/></g><g><path d="m61 2h-6c-.55 0-1 .45-1 1v1 41c0 .55.45 1 1 1h6c.55 0 1-.45 1-1v-42c0-.55-.45-1-1-1z" fill="#cf9e76"/></g><g><path d="m59 16c-.55 0-1 .45-1 1v5 5c0 .55.45 1 1 1h3v-6-6z" fill="#b27946"/></g><g><path d="m50 22v2h-8c-1.1 0-2-.9-2-2 0-.55.22-1.05.59-1.41.36-.37.86-.59 1.41-.59h2 4 1c.55 0 1 .45 1 1z" fill="#aab2bd"/></g><g><path d="m33.9 35.56c.06.13.1.28.1.44v6.35.01c-.47-.23-.99-.36-1.54-.36h-.05c-.9 0-1.77.36-2.41 1v-7c0-.24.09-.47.23-.64.19-.22.46-.36.77-.36h1 1c.39 0 .73.23.9.56z" fill="#fcd770"/></g><g><path d="m14 35.23v11.77l-1.88-1.88c-.62-.62-1.34-1.11-2.12-1.46v-.01-7.98-.67c0-1.1.9-2 2-2 .55 0 1.05.22 1.41.59.37.36.59.86.59 1.41z" fill="#fcd770"/></g><g><path d="m17 14-1 3h-.67c-1.84 0-3.33 1.49-3.33 3.33 0 1.05.49 2.04 1.33 2.67l2.67 2v6l-1.87-1.41c-3.86-2.9-6.13-7.44-6.13-12.27v-3.32h4 4z" fill="#b27946"/></g><g><path d="m48 16c1.1 0 2 .9 2 2 0 .55-.22 1.05-.59 1.41-.36.37-.86.59-1.41.59h-4c-1.1 0-2-.9-2-2 0-.55.22-1.05.59-1.41.36-.37.86-.59 1.41-.59z" fill="#f0d0b4"/></g><g><path d="m32.41 42h.05c.55 0 1.07.13 1.54.36.36.17.68.4.96.68s.51.6.68.96c.23.47.36.99.36 1.54 0 .93-.37 1.83-1.04 2.5l-3.96 3.96-5-5v-1c0-1.66 1.34-3 3-3h1c.64-.64 1.51-1 2.41-1z" fill="#f0d0b4"/></g><g><path d="m32 14s2 4 2 8l-2 1v3c0 .34-.03.68-.1 1-.46 2.28-2.48 4-4.9 4h-3v4l-.59.59c-.9.9-2.13 1.41-3.41 1.41s-2.51-.51-3.41-1.41l-.59-.59v-4-6l-2.67-2c-.84-.63-1.33-1.62-1.33-2.67 0-1.84 1.49-3.33 3.33-3.33h.67l1-3z" fill="#f0d0b4"/></g><g><path d="m36 11.01v1.99c0 .55-.45 1-1 1h-3-15-1v-3c0-.55.45-1 1-1h5 4l5 .01h4c.55 0 1 .45 1 1z" fill="#aab2bd"/></g><g><path d="m12 14h-4c0-3.32 1.34-6.32 3.51-8.49 1.5-1.5 3.39-2.6 5.51-3.13 3 1.32 4.98 4.29 4.98 7.62h-5c-.55 0-1 .45-1 1v3z" fill="#e6e9ed"/></g><g><path d="m20.76 2c4.84 0 9.06 3.3 10.24 8v.01l-5-.01c0-3.58-2.29-6.76-5.69-7.9l-.31-.1z" fill="#e6e9ed"/></g><g><path d="m20.31 2.1c3.4 1.14 5.69 4.32 5.69 7.9h-4c0-3.33-1.98-6.3-4.98-7.62.95-.25 1.95-.38 2.98-.38z" fill="#ff826e"/></g></g><g><path d="m28 19.99c1.654 0 3-1.346 3-3h-2c0 .551-.448 1-1 1s-1-.449-1-1h-2c0 1.654 1.346 3 3 3z"/><path d="m61 1h-6c-1.103 0-2 .897-2 2h-.544c-.706-1.217-2.014-2-3.456-2-1.493 0-2.782.832-3.469 2.047-2.535.241-4.531 2.357-4.531 4.953 0 2.757 2.243 5 5 5 .49 0 .973-.078 1.438-.218.658 1.309 1.999 2.218 3.562 2.218.732 0 1.409-.212 2-.556v6.556h-2c0-.51-.198-.971-.513-1.324.324-.479.513-1.056.513-1.676 0-1.654-1.346-3-3-3h-4c-1.654 0-3 1.346-3 3 0 .395.081.77.22 1.116-1.275.345-2.22 1.501-2.22 2.884 0 1.302.839 2.402 2 2.816v10.129l-6.586-.357c-.362-.363-.862-.588-1.414-.588v-2h-2v2c-.409 0-.789.124-1.106.336l-4.894-.28v-2.058l1.994.002h.006c1.602 0 3.107-.624 4.24-1.755 1.135-1.134 1.76-2.641 1.76-4.245v-2.382l2-1v-.618c0-2.731-.857-5.412-1.479-7h1.479c1.103 0 2-.897 2-2v-1.99c0-1.102-.896-1.999-1.999-2l-3.252-.002c-1.531-4.75-5.941-8.007-10.994-8.008h-.755-.001c-3.472 0-6.736 1.352-9.191 3.807-2.455 2.456-3.808 5.72-3.808 9.193v3.323c0 5.114 2.442 9.999 6.531 13.064l1.469 1.11v2.611l-.145.017c-.377-1.226-1.507-2.125-2.855-2.125-.771 0-1.468.301-2 .78-.532-.479-1.229-.78-2-.78-1.654 0-3 1.346-3 3v1.432c-.266.179-.536.349-.786.553-2.042 1.67-3.214 4.14-3.214 6.778 0 .08.009.158.012.237h-.012v19h15 4 21v-2h-4v-15.464c0-.183-.033-.358-.054-.536h7.054c3.859 0 7-3.14 7-7v-15h2v22c0 1.103.897 2 2 2h6c1.103 0 2-.897 2-2v-42c0-1.103-.897-2-2-2zm-17 16h4c.552 0 1 .449 1 1s-.448 1-1 1h-4c-.552 0-1-.449-1-1s.448-1 1-1zm-11 19v5.058c-.194-.024-.385-.058-.586-.058-.489 0-.964.085-1.414.237v-5.237zm-.017-14.61-1.983.992v3.618h-1.764c-.998 0-1.896-.555-2.342-1.447l-1.789.895c.789 1.574 2.372 2.552 4.131 2.552h1.21c-.173.297-.37.58-.62.83-.755.754-1.759 1.17-2.826 1.17-.001 0-.003 0-.004 0l-5.995-.006-.002 2 2.001.002v2.59l-.293.293c-.713.712-1.699 1.121-2.707 1.121s-1.994-.409-2.707-1.121l-.293-.293v-10.086l-3.066-2.3c-.585-.438-.934-1.136-.934-1.867 0-1.286 1.047-2.333 2.333-2.333h1.388l1-3h13.637c.478 1.102 1.486 3.708 1.625 6.39zm2.017-8.39h-18l-.001-2 18.001.01zm-15.142-9.993.133.044c2.676.891 4.556 3.217 4.93 5.953l-1.994-.001c-.252-2.338-1.363-4.47-3.095-5.995.008.001.017 0 .026-.001zm9.765 6-2.682-.001c-.208-1.95-1.017-3.746-2.273-5.17 2.231.999 4.023 2.838 4.955 5.171zm-17.401-2.785c1.326-1.326 2.933-2.267 4.684-2.777 2.192 1.079 3.692 3.164 4.021 5.558l-3.926-.003c-.001 0-.001 0-.002 0-.533 0-1.035.208-1.413.585-.378.379-.586.881-.586 1.415v2h-2v-2h-2v2h-1.951c.229-2.56 1.333-4.938 3.173-6.778zm2.511 22.568c-3.589-2.693-5.733-6.979-5.733-11.467v-2.323h6.613l-.334 1c-2.364.029-4.279 1.962-4.279 4.333 0 1.356.647 2.652 1.733 3.466l2.267 1.701v3.491zm.902 7.259.244.244c1.085 1.085 2.587 1.707 4.121 1.707s3.036-.622 4.121-1.707l.269-.269 4.61.264v5.712c-2.206 0-4 1.794-4 4v.586l-5 5-5-5v-10.464zm-3.635-2.049c.552 0 1 .449 1 1v9.586l-.172-.172c-.55-.55-1.167-1.007-1.828-1.376v-8.038c0-.551.448-1 1-1zm-5 1c0-.551.448-1 1-1 .491 0 .881.362.965.829-.674.12-1.333.294-1.965.542zm-1.521 3.535c1.028-.841 2.234-1.403 3.521-1.685v5.403c-.647-.161-1.316-.253-2-.253v2c1.667 0 3.234.649 4.414 1.828l7.172 7.172-2.293 2.293 1.414 1.414 8.293-8.293 3.586 3.586-7.879 7.879c-.713.712-1.699 1.121-2.707 1.121-1.023 0-1.984-.398-2.707-1.121-2.608-2.611-8.201-8.208-11.335-11.364-1.263-1.271-1.958-2.959-1.958-4.752 0-2.035.903-3.941 2.479-5.228zm25.107 15.293c-.958 3.242-3.516 5.8-6.759 6.758zm-16.144 7.028c-3.719-.653-6.652-3.591-7.3-7.311 2.603 2.609 5.478 5.488 7.3 7.311zm-11.442.144v-11.673c.17.205.348.406.538.597.442.446.937.943 1.462 1.47v.606c0 3.72 1.861 7.008 4.695 9zm24.619 0c3.125-2.075 5.214-5.574 5.359-9.563l2.022-2.022v11.585zm6.639-13.671-3.258 3.257-4-4v-.586c0-1.103.897-2 2-2h1.414l.293-.292c.456-.457 1.063-.708 1.758-.708 1.397 0 2.535 1.138 2.535 2.536 0 .677-.264 1.314-.742 1.793zm14.742-9.329c0 2.757-2.243 5-5 5h-7.779c-.325-.477-.74-.889-1.221-1.213v-5.165l6.564.356 1.729 1.729 1.414-1.414-1.707-1.707v-10.586h6zm0-15h-7c-.552 0-1-.449-1-1s.448-1 1-1h7zm4-14h-2v-4h2zm-4-6c.358 0 .691.113.988.285-.588.348-.988.983-.988 1.715v2c-1.103 0-2-.897-2-2s.897-2 2-2zm-6 5c0-1.309.847-2.412 2.018-2.821.075 1.666 1.167 3.058 2.674 3.584-.402.594-.639 1.295-.676 2.037-.326.118-.665.2-1.016.2-1.654 0-3-1.346-3-3zm8 5c-1.103 0-2-.897-2-2 0-.358.113-.691.284-.989.349.589.984.989 1.716.989h2c0 1.103-.897 2-2 2zm4 32v-42h6v12h-2c-1.103 0-2 .897-2 2v10c0 1.103.897 2 2 2h2v16zm4-22h2v4h-2zm0-2v-4h2v4z"/><path d="m57 5h2v8h-2z"/></g></g></svg>