<?xml version="1.0" encoding="iso-8859-1"?>
<!-- Generator: Adobe Illustrator 19.0.0, SVG Export Plug-In . SVG Version: 6.00 Build 0)  -->
<svg version="1.1" id="Capa_1" xmlns="http://www.w3.org/2000/svg" xmlns:xlink="http://www.w3.org/1999/xlink" x="0px" y="0px"
	 viewBox="0 0 480.065 480.065" style="enable-background:new 0 0 480.065 480.065;" xml:space="preserve">
<path style="fill:#FFD884;" d="M112.053,168.032h48v96h-48V168.032z"/>
<path style="fill:#A9BFD1;" d="M472.053,480.032h-464c-4.418,0-8-3.582-8-8s3.582-8,8-8h464c4.418,0,8,3.582,8,8
	S476.471,480.032,472.053,480.032z"/>
<path style="fill:#1D5C88;" d="M456.053,256.032l-16-16l-16-104h-144v192h-280v88h456V256.032z"/>
<g>
	<path style="fill:#A9BFD1;" d="M253.709,138.376l-112-112c-3.124-3.123-8.188-3.123-11.312,0l-88,88l-24,24
		c-3.069,3.178-2.981,8.243,0.197,11.312c3.1,2.994,8.015,2.994,11.115,0l10.344-10.344v106.48
		c-0.067,6.478,2.071,12.786,6.064,17.888c3.979,5.15,10.084,8.212,16.592,8.32h146.688c6.511-0.11,12.619-3.174,16.6-8.328
		c3.988-5.101,6.124-11.406,6.056-17.88v-106.48l10.344,10.344c3.178,3.07,8.242,2.982,11.312-0.196
		C256.703,146.392,256.703,141.477,253.709,138.376L253.709,138.376z M216.053,125.368v120.456c0.052,2.824-0.831,5.586-2.512,7.856
		c-0.955,1.37-2.478,2.234-4.144,2.352H62.709c-1.662-0.116-3.182-0.978-4.136-2.344c-1.689-2.269-2.576-5.036-2.52-7.864v-122.48
		l80-80l80.336,80.344C216.215,124.234,216.103,124.798,216.053,125.368L216.053,125.368z"/>
	<path style="fill:#A9BFD1;" d="M168.053,128.032h-64c-4.418-0.001-7.999-3.583-7.998-8.002c0-2.121,0.843-4.154,2.342-5.654l32-32
		c3.178-3.069,8.243-2.981,11.312,0.197c2.994,3.1,2.994,8.015,0,11.115l-18.344,18.344h44.688c4.418,0,8,3.582,8,8
		C176.053,124.451,172.471,128.032,168.053,128.032z"/>
</g>
<path style="fill:#D1E3EE;" d="M392.053,392.032h65.6c8.384,0.465,14.818,7.614,14.4,16c0.418,8.386-6.016,15.535-14.4,16h-65.6
	V392.032z"/>
<path style="fill:#88D0EF;" d="M312.053,168.032h80l8,72h-88V168.032z"/>
<path style="fill:#FFF89B;" d="M424.053,368.032c-4.418,0-8-3.582-8-8v-24c0-4.418,3.582-8,8-8s8,3.582,8,8v24
	C432.053,364.451,428.471,368.032,424.053,368.032z"/>
<circle style="fill:#484D51;" cx="64.053" cy="416.032" r="56"/>
<circle style="fill:#B9D2ED;" cx="64.053" cy="416.032" r="24"/>
<path style="fill:#A9BFD1;" d="M232.053,80.032c-4.418,0-8-3.582-8-8v-48c0-4.418-3.582-8-8-8s-8,3.582-8,8v24c0,4.418-3.582,8-8,8
	s-8-3.582-8-8v-24c0-13.255,10.745-24,24-24s24,10.745,24,24v48C240.053,76.451,236.471,80.032,232.053,80.032z"/>
<g>
	<path style="fill:#5A6570;" d="M200.053,336.032c-13.255,0-24-10.745-24-24s10.745-24,24-24s24,10.745,24,24
		S213.308,336.032,200.053,336.032z M200.053,304.032c-4.418,0-8,3.582-8,8s3.582,8,8,8s8-3.582,8-8
		S204.471,304.032,200.053,304.032z"/>
	<path style="fill:#5A6570;" d="M136.053,336.032c-13.255,0-24-10.745-24-24s10.745-24,24-24s24,10.745,24,24
		S149.308,336.032,136.053,336.032z M136.053,304.032c-4.418,0-8,3.582-8,8s3.582,8,8,8s8-3.582,8-8
		S140.471,304.032,136.053,304.032z"/>
	<path style="fill:#5A6570;" d="M72.053,336.032c-13.255,0-24-10.745-24-24s10.745-24,24-24s24,10.745,24,24
		S85.308,336.032,72.053,336.032z M72.053,304.032c-4.418,0-8,3.582-8,8s3.582,8,8,8s8-3.582,8-8S76.471,304.032,72.053,304.032z"/>
</g>
<circle style="fill:#484D51;" cx="344.053" cy="416.032" r="56"/>
<circle style="fill:#B9D2ED;" cx="344.053" cy="416.032" r="24"/>
<path d="M42.453,114.384l-24,24c-3.178,3.069-3.266,8.134-0.197,11.312s8.134,3.266,11.312,0.197
	c0.067-0.064,0.132-0.13,0.197-0.197l10.288-10.352v106.48c-0.067,6.478,2.071,12.786,6.064,17.888
	c3.986,5.159,10.105,8.222,16.624,8.32h146.688c6.511-0.11,12.619-3.174,16.6-8.328c3.977-5.105,6.101-11.409,6.024-17.88v-106.48
	l10.4,10.344c3.178,3.07,8.242,2.982,11.312-0.196c2.994-3.1,2.994-8.015,0-11.116l-112-112c-3.124-3.123-8.188-3.123-11.312,0
	l-88,88L42.453,114.384z M120.053,256.032v-80h32v80H120.053z M136.053,43.344l80.368,80.344c-0.173,0.546-0.286,1.109-0.336,1.68
	v120.456c0.052,2.824-0.831,5.586-2.512,7.856c-0.955,1.37-2.478,2.234-4.144,2.352h-41.376v-88c0-4.418-3.582-8-8-8h-48
	c-4.418,0-8,3.582-8,8v88H62.741c-1.662-0.116-3.182-0.978-4.136-2.344c-1.7-2.265-2.598-5.032-2.552-7.864v-122.48L136.053,43.344z
	"/>
<path d="M104.053,128.032h64c4.418,0,8-3.582,8-8s-3.582-8-8-8h-44.656l18.344-18.344c2.97-3.271,2.726-8.33-0.545-11.301
	c-3.046-2.765-7.692-2.77-10.743-0.011l-32,32c-3.124,3.125-3.123,8.19,0.001,11.314C99.94,127.176,101.951,128.017,104.053,128.032
	z"/>
<path d="M405.981,432.032h51.672c12.799-0.473,22.809-11.199,22.4-24c0.175-10.284-6.28-19.515-16-22.88v-129.12
	c0-2.122-0.844-4.156-2.344-5.656l-14.152-14.152l-15.6-101.408c-0.6-3.902-3.956-6.782-7.904-6.784h-144c-4.418,0-8,3.582-8,8v184
	h-49.44c0.937-2.564,1.424-5.27,1.44-8c0-13.255-10.745-24-24-24s-24,10.745-24,24c0.027,2.732,0.524,5.438,1.472,8h-18.912
	c0.937-2.564,1.424-5.27,1.44-8c0-13.255-10.745-24-24-24s-24,10.745-24,24c0.027,2.732,0.524,5.438,1.472,8H94.613
	c0.937-2.564,1.424-5.27,1.44-8c0-13.255-10.745-24-24-24s-24,10.745-24,24c0.027,2.732,0.524,5.438,1.472,8H0.053v16h280
	c4.418,0,8-3.582,8-8v-184h129.168l14.96,97.216c0.258,1.681,1.046,3.237,2.248,4.44l13.624,13.656v124.688h-48v1.088
	c-17.059-30.917-55.951-42.15-86.868-25.091c-17.9,9.877-29.997,27.718-32.548,48.003H127.533
	c-4.293-35.085-36.215-60.046-71.3-55.753c-35.085,4.293-60.046,36.215-55.753,71.3c1.917,15.668,9.557,30.076,21.452,40.453H8.053
	c-4.418,0-8,3.582-8,8s3.582,8,8,8h464c4.418,0,8-3.582,8-8s-3.582-8-8-8h-85.776C395.899,455.578,402.763,444.431,405.981,432.032
	L405.981,432.032z M192.053,312.032c0-4.418,3.582-8,8-8s8,3.582,8,8s-3.582,8-8,8S192.053,316.451,192.053,312.032z
	 M128.053,312.032c0-4.418,3.582-8,8-8s8,3.582,8,8s-3.582,8-8,8S128.053,316.451,128.053,312.032z M64.053,312.032
	c0-4.418,3.582-8,8-8s8,3.582,8,8s-3.582,8-8,8S64.053,316.451,64.053,312.032z M457.653,400.032c4.418,0.994,7.194,5.382,6.2,9.8
	c-0.695,3.091-3.109,5.505-6.2,6.2h-49.6c-0.023-5.401-0.73-10.777-2.104-16H457.653z M16.053,416.032c0-26.51,21.49-48,48-48
	s48,21.49,48,48s-21.49,48-48,48C37.554,464.006,16.079,442.531,16.053,416.032z M106.245,464.032
	c11.731-10.292,19.291-24.519,21.256-40h153.136c1.965,15.481,9.525,29.708,21.256,40H106.245z M296.053,416.032
	c0-26.51,21.49-48,48-48s48,21.49,48,48s-21.49,48-48,48C317.554,464.006,296.079,442.531,296.053,416.032z"/>
<path d="M344.053,384.032c-17.673,0-32,14.327-32,32s14.327,32,32,32s32-14.327,32-32S361.726,384.032,344.053,384.032z
	 M344.053,432.032c-8.837,0-16-7.163-16-16s7.163-16,16-16s16,7.163,16,16S352.889,432.032,344.053,432.032z"/>
<path d="M400.053,248.032c4.418,0.027,8.022-3.533,8.048-7.951c0.002-0.31-0.014-0.62-0.048-0.929l-8-72
	c-0.451-4.071-3.904-7.145-8-7.12h-80c-4.418,0-8,3.582-8,8v72c0,4.418,3.582,8,8,8H400.053z M320.053,176.032h64.8l6.232,56
	h-71.032V176.032z"/>
<path d="M432.053,360.032v-24c0-4.418-3.582-8-8-8s-8,3.582-8,8v24c0,4.418,3.582,8,8,8S432.053,364.451,432.053,360.032z"/>
<path d="M64.053,384.032c-17.673,0-32,14.327-32,32s14.327,32,32,32s32-14.327,32-32S81.726,384.032,64.053,384.032z
	 M64.053,432.032c-8.837,0-16-7.163-16-16s7.163-16,16-16s16,7.163,16,16S72.889,432.032,64.053,432.032z"/>
<path d="M232.053,80.032c4.418,0,8-3.582,8-8v-48c0-13.255-10.745-24-24-24s-24,10.745-24,24v24c0,4.418,3.582,8,8,8s8-3.582,8-8
	v-24c0-4.418,3.582-8,8-8s8,3.582,8,8v48C224.053,76.451,227.634,80.032,232.053,80.032z"/>
<g>
</g>
<g>
</g>
<g>
</g>
<g>
</g>
<g>
</g>
<g>
</g>
<g>
</g>
<g>
</g>
<g>
</g>
<g>
</g>
<g>
</g>
<g>
</g>
<g>
</g>
<g>
</g>
<g>
</g>
</svg>
