<?xml version="1.0" encoding="iso-8859-1"?>
<!-- Generator: Adobe Illustrator 19.0.0, SVG Export Plug-In . SVG Version: 6.00 Build 0)  -->
<svg version="1.1" id="Capa_1" xmlns="http://www.w3.org/2000/svg" xmlns:xlink="http://www.w3.org/1999/xlink" x="0px" y="0px"
	 viewBox="0 0 512 512" style="enable-background:new 0 0 512 512;" xml:space="preserve">
<g>
	<path style="fill:#A0D860;" d="M73.837,474.031l112.022-41.874c2.48-0.927,3.996-2.891,3.996-5.183V105.17
		c0-2.101-1.275-3.948-3.429-4.969L73.837,46.779V474.031z"/>
	<path style="fill:#A0D860;" d="M438.138,474.031l-112.022-41.874c-2.48-0.927-3.996-2.891-3.996-5.183V105.17
		c0-2.101,1.275-3.948,3.429-4.969l112.59-53.421L438.138,474.031L438.138,474.031z"/>
</g>
<g>
	<path style="fill:#F7F9F9;" d="M354.881,249.031V126.916c0-0.413,0.245-0.779,0.661-0.987l50.886-25.452
		c0.996-0.498,2.396,0.24,2.396,1.263v147.686c0,0.69-0.674,1.245-1.505,1.239l-50.825-0.329
		C355.603,250.329,354.881,249.745,354.881,249.031z"/>
	<path style="fill:#F7F9F9;" d="M408.824,276.768v148.874c0,0.976-1.289,1.718-2.293,1.319l-50.879-20.212
		c-0.478-0.19-0.77-0.58-0.77-1.031V277.356c0-0.715,0.722-1.301,1.612-1.31l50.825-0.512
		C408.15,275.526,408.824,276.078,408.824,276.768z"/>
</g>
<g>
	<path style="fill:#E4E4E4;" d="M406.428,100.477l-30.365,15.188v133.761c0,0.432-0.264,0.811-0.665,1.032l31.921,0.207
		c0.832,0.005,1.505-0.549,1.505-1.239V101.739C408.824,100.717,407.424,99.978,406.428,100.477z"/>
	<path style="fill:#E4E4E4;" d="M407.318,275.534l-31.749,0.32c0.301,0.225,0.493,0.549,0.493,0.914v138.09l30.468,12.104
		c1.004,0.399,2.293-0.343,2.293-1.319V276.768C408.824,276.078,408.15,275.526,407.318,275.534z"/>
</g>
<path style="fill:#0072A2;" d="M477.658,18.855c0-6.389-5.179-11.568-11.568-11.568H45.912c-6.389,0-11.568,5.179-11.568,11.568
	v455.177h39.493V46.78h364.328v427.252h39.493V18.855z"/>
<path style="fill:#006289;" d="M466.09,7.287h-33.743c6.389,0,11.568,5.179,11.568,11.568v455.177h33.743V18.855
	C477.658,12.466,472.479,7.287,466.09,7.287z"/>
<path style="fill:#FCE995;" d="M157.094,249.031V126.916c0-0.413-0.245-0.779-0.661-0.987l-50.886-25.452
	c-0.996-0.498-2.396,0.24-2.396,1.263v147.686c0,0.69,0.674,1.245,1.505,1.239l50.825-0.329
	C156.372,250.329,157.094,249.745,157.094,249.031z"/>
<g>
	<path style="fill:#F7F9F9;" d="M103.151,276.768v148.874c0,0.976,1.289,1.718,2.293,1.319l50.879-20.212
		c0.478-0.19,0.77-0.58,0.77-1.031V277.356c0-0.715-0.722-1.301-1.612-1.31l-50.825-0.512
		C103.825,275.526,103.151,276.078,103.151,276.768z"/>
	<path style="fill:#F7F9F9;" d="M157.094,249.031V126.916c0-0.413-0.245-0.779-0.661-0.987l-50.886-25.452
		c-0.996-0.498-2.396,0.24-2.396,1.263v147.686c0,0.69,0.674,1.245,1.505,1.239l50.825-0.329
		C156.372,250.329,157.094,249.745,157.094,249.031z"/>
</g>
<g>
	<path style="fill:#E4E4E4;" d="M157.094,126.916c0-0.206-0.061-0.401-0.175-0.57s-0.278-0.313-0.486-0.417l-13.404-6.705
		l-19.678-9.842v139.649c0,0.244-0.086,0.839-0.232,1.514l32.363-0.21c0.222-0.001,0.435-0.039,0.627-0.106
		c0.289-0.1,0.535-0.266,0.709-0.473c0.174-0.208,0.275-0.457,0.275-0.725V126.916H157.094z"/>
	<path style="fill:#E4E4E4;" d="M155.482,276.046l-32.131-0.323v144.125l32.973-13.099c0.478-0.19,0.77-0.58,0.77-1.03V277.356
		C157.094,276.641,156.372,276.055,155.482,276.046z"/>
</g>
<path style="fill:#D96B37;" d="M490.137,504.713H21.865c-4.945,0-8.954-4.009-8.954-8.954v-19.652c0-4.945,4.009-8.954,8.954-8.954
	h468.272c4.945,0,8.954,4.009,8.954,8.954v19.652C499.091,500.705,495.082,504.713,490.137,504.713z"/>
<path style="fill:#B14418;" d="M490.137,467.136h-24.789v37.559h24.789c4.945,0,8.954-4.009,8.954-8.954V476.09
	C499.091,471.145,495.082,467.136,490.137,467.136z"/>
<g>
	<path style="fill:#1A1A1A;" d="M490.137,459.868h-5.192V285.389c0-4.025-3.262-7.287-7.287-7.287s-7.287,3.262-7.287,7.287v174.479
		h-24.92V46.78c0-3.852-2.99-6.997-6.774-7.261c-0.079-0.006-0.158-0.009-0.237-0.012c-0.092-0.003-0.182-0.014-0.275-0.014H73.837
		c-0.088,0-0.174,0.01-0.262,0.013c-0.102,0.004-0.204,0.007-0.306,0.015c-0.211,0.016-0.418,0.043-0.623,0.077
		c-0.065,0.011-0.13,0.017-0.194,0.03c-0.283,0.054-0.56,0.124-0.83,0.21c-0.018,0.006-0.035,0.014-0.053,0.019
		c-0.251,0.082-0.494,0.179-0.732,0.287c-0.064,0.029-0.126,0.06-0.189,0.091c-0.201,0.098-0.397,0.205-0.588,0.321
		c-0.039,0.023-0.08,0.04-0.118,0.065c-0.021,0.014-0.04,0.03-0.061,0.044c-0.239,0.155-0.47,0.319-0.688,0.499
		c-0.008,0.007-0.015,0.014-0.022,0.02c-0.204,0.171-0.397,0.354-0.581,0.546c-0.058,0.06-0.113,0.124-0.169,0.186
		c-0.135,0.15-0.263,0.305-0.385,0.466c-0.049,0.065-0.099,0.128-0.145,0.194c-0.149,0.21-0.288,0.427-0.414,0.653
		c-0.008,0.014-0.017,0.027-0.025,0.041c-0.137,0.249-0.257,0.508-0.365,0.774c-0.02,0.05-0.036,0.101-0.055,0.151
		c-0.08,0.211-0.151,0.426-0.212,0.647c-0.021,0.075-0.04,0.151-0.058,0.227c-0.05,0.206-0.089,0.415-0.121,0.627
		c-0.011,0.076-0.026,0.151-0.035,0.227c-0.033,0.281-0.055,0.566-0.055,0.856v413.088h-24.92V285.419
		c0-4.025-3.262-7.287-7.287-7.287s-7.287,3.262-7.287,7.287v174.449h-5.192c-8.954,0-16.24,7.286-16.24,16.24v19.652
		c0,8.954,7.286,16.24,16.24,16.24h468.271c8.954,0,16.24-7.286,16.24-16.24v-19.652
		C506.377,467.154,499.091,459.868,490.137,459.868z M405.782,54.066l-83.357,39.55c-4.683,2.222-7.592,6.649-7.592,11.553v321.805
		c0,5.31,3.427,10.024,8.732,12.009l55.873,20.885h-246.9l55.874-20.886c5.304-1.983,8.731-6.696,8.731-12.008V105.17
		c0-4.903-2.908-9.33-7.591-11.553l-83.357-39.55L405.782,54.066L405.782,54.066z M430.851,58.303v401.565h-9.793l-91.652-34.261
		V106.435L430.851,58.303z M81.123,58.303l101.445,48.132v319.174l-91.652,34.26h-9.793V58.303z M491.804,495.76
		c0,0.919-0.748,1.667-1.667,1.667H21.865c-0.919,0-1.667-0.748-1.667-1.667v-19.652c0-0.919,0.748-1.667,1.667-1.667h12.478h39.493
		h18.397h327.508h18.397h0.027h39.494h12.478c0.919,0,1.667,0.748,1.667,1.667L491.804,495.76L491.804,495.76z"/>
	<path style="fill:#1A1A1A;" d="M34.344,257.62c4.025,0,7.287-3.262,7.287-7.287V18.855c0-2.361,1.921-4.282,4.282-4.282h420.178
		c2.361,0,4.282,1.921,4.282,4.282v231.862c0,4.025,3.262,7.287,7.287,7.287s7.287-3.262,7.287-7.287V18.855
		C484.945,8.458,476.487,0,466.09,0H45.912C35.515,0,27.057,8.458,27.057,18.855v231.478
		C27.057,254.358,30.319,257.62,34.344,257.62z"/>
	<path style="fill:#1A1A1A;" d="M356.446,257.621l50.823,0.329c0.016,0,0.046,0,0.062,0c4.842,0,8.78-3.824,8.78-8.526V101.739
		c0-4.802-4.03-8.709-8.986-8.709c-1.372,0-2.74,0.322-3.956,0.929l-50.884,25.453c-2.893,1.446-4.69,4.322-4.69,7.505v122.115
		C347.594,253.736,351.566,257.59,356.446,257.621z M362.167,130.762l39.37-19.692v132.27l-39.37-0.254V130.762z"/>
	<path style="fill:#1A1A1A;" d="M352.961,413.521l50.878,20.212c1.045,0.415,2.148,0.625,3.282,0.625c4.957,0,8.99-3.91,8.99-8.715
		V276.768c0-4.698-3.935-8.52-8.865-8.52l-50.829,0.511c-4.864,0.052-8.822,3.909-8.822,8.597v128.362
		C347.594,409.158,349.697,412.219,352.961,413.521z M362.167,283.275l39.37-0.397v134.259l-39.37-15.64V283.275z"/>
	<path style="fill:#1A1A1A;" d="M104.854,434.358c1.134,0,2.237-0.211,3.28-0.625l50.884-20.213
		c3.258-1.296,5.362-4.359,5.362-7.801V277.356c0-4.688-3.957-8.545-8.825-8.597l-50.917-0.511c-4.838,0-8.773,3.822-8.773,8.52
		v148.875C95.864,430.448,99.897,434.358,104.854,434.358z M110.437,282.88l39.37,0.396v118.223l-39.37,15.639
		C110.437,417.138,110.437,282.88,110.437,282.88z"/>
	<path style="fill:#1A1A1A;" d="M104.643,257.951c0.016,0,0.045,0,0.061,0l50.824-0.329c4.881-0.031,8.852-3.885,8.852-8.59V126.917
		c0-3.18-1.794-6.055-4.687-7.505l-50.888-25.453c-1.215-0.607-2.583-0.929-3.955-0.929c-4.955,0-8.986,3.907-8.986,8.709v147.686
		C95.864,254.126,99.803,257.951,104.643,257.951z M110.437,111.07l39.37,19.692v112.324l-39.37,0.254
		C110.437,243.34,110.437,111.07,110.437,111.07z"/>
</g>
<g>
</g>
<g>
</g>
<g>
</g>
<g>
</g>
<g>
</g>
<g>
</g>
<g>
</g>
<g>
</g>
<g>
</g>
<g>
</g>
<g>
</g>
<g>
</g>
<g>
</g>
<g>
</g>
<g>
</g>
</svg>
