<svg id="Layer_1" enable-background="new 0 0 64 64" height="512" viewBox="0 0 64 64" width="512" xmlns="http://www.w3.org/2000/svg"><path d="m48.9 39.4-7.9-3.4h-18l-7.9 3.4c-3.7 1.6-6.1 5.2-6.1 9.2v12.4h46v-12.4c0-4-2.4-7.6-6.1-9.2z" fill="#727272"/><path d="m18 47h4l-1.9-9.7-4.1 1.7z" fill="#59596b"/><path d="m46 47h-28l-2 14h32z" fill="#3a3a51"/><path d="m46 47h-4l1.9-9.7 4.1 1.7z" fill="#59596b"/><path d="m45 25h-2v7l3.2-2.4c.5-.4.8-1 .8-1.6v-1c0-1.1-.9-2-2-2z" fill="#ce7c5f"/><path d="m19 25c-1.1 0-2 .9-2 2v1c0 .6.3 1.2.8 1.6l3.2 2.4v-7z" fill="#ce7c5f"/><path d="m32 6c6.1 0 11 4.9 11 11v1h-22v-1c0-6.1 4.9-11 11-11z" fill="#ffa500"/><path d="m21 21v9c0 4.2 2.6 8 6.6 9.4l1 .4c2.2.8 4.6.8 6.8 0l1-.4c4-1.4 6.6-5.2 6.6-9.4v-9z" fill="#d8927c"/><path d="m32 3c-2.2 0-4 1.8-4 4v6h8v-6c0-2.2-1.8-4-4-4z" fill="#e28b00"/><path d="m20 17h24c1.1 0 2 .9 2 2 0 1.1-.9 2-2 2h-24c-1.1 0-2-.9-2-2 0-1.1.9-2 2-2z" fill="#e28b00"/><path d="m21 27 2.4 2.4c.4.4.9.6 1.4.6h4.1c.7 0 1.3-.3 1.7-.9l.6-.9c.3-.5.9-.6 1.4-.3.1.1.2.2.3.3l.6.9c.4.6 1 .9 1.7.9h4.1c.5 0 1-.2 1.4-.6l2.3-2.4v-6h-22z" fill="#3a3a51"/><path d="m53 33-16 16 5 6 3-3h3v-3h3v-4h3v-4h3v-4z" fill="#d3d1cf"/><path d="m42.6 57.4-2.5 2.5c-1.2 1.2-3.1 1.2-4.2 0l-3.5-3.5c-.8-.8-.8-2 0-2.8l4.6-4.6 5.6 5.6c.8.8.8 2 0 2.8z" fill="#2b2b2b"/><path d="m41 53-1.6 1.6c-.8.8-2 .8-2.8 0l-2.6-2.6 3-3z" fill="#3f3f3f"/><path d="m32 3c-.3 0-.7.1-1 .1v9.9h2v-9.9c-.3 0-.7-.1-1-.1z" fill="#ffa500"/><path d="m21 21v6l2.4 2.4c.4.4.9.6 1.4.6h4.1c.7 0 1.3-.3 1.7-.9l.6-.9c.2-.3.5-.4.8-.4v-6.8z" fill="#59596b"/><path d="m58 42v-5.4l-5-5-5.9 5.9-4.6-2c.5-.9.9-1.8 1.1-2.8l3.2-2.4c.8-.6 1.2-1.5 1.2-2.4v-1c0-1.7-1.3-3-3-3h-1v-2c1.7 0 3-1.3 3-3s-1.3-3-3-3c-.3-4.4-3.1-8.2-7.1-9.9-.5-2.7-3.1-4.5-5.8-4-2 .4-3.6 2-4 4-4 1.8-6.7 5.6-7.1 9.9-1.7 0-3 1.3-3 3s1.3 3 3 3v2h-1c-1.7 0-3 1.3-3 3v1c0 .9.4 1.8 1.2 2.4l3.2 2.4c.3 1 .6 1.9 1.1 2.8l-6.8 2.9c-4 1.7-6.7 5.7-6.7 10.1v13.5h48v-13.4c0-1.6-.3-3.1-1-4.6v-2zm-2-4.6v2.6h-3v4h-3v4h-3v3h-2.4l-2.1 2.1-4.1-4.1 14.6-14.6zm-37.2 8.6-1.6-6.4 2.1-.9 1.5 7.3zm.1 2h17.7l-.3.3-4.6 4.6c-1.2 1.2-1.2 3.1 0 4.2l2.9 2.9h-17.4zm20.7 5-.9.9c-.4.4-1 .4-1.4 0l-1.9-1.9 1.6-1.6zm-3 6.2-3.5-3.5c-.4-.4-.4-1 0-1.4l.9-.9 1.9 1.9c1.2 1.2 3.1 1.2 4.2 0l.9-.9.9.9c.4.4.4 1 0 1.4l-2.5 2.5c-.8.8-2 .8-2.8 0zm-14.6-29.8.7.7c.6.6 1.3.9 2.1.9h4.1c1 0 1.9-.5 2.5-1.3l.6-.9.6.9c.6.8 1.5 1.3 2.5 1.3h4.1c.8 0 1.6-.3 2.1-.9l.7-.7v.6c0 3.8-2.4 7.2-5.9 8.5l-1 .4c-2 .7-4.2.7-6.2 0l-1-.4c-3.5-1.3-5.9-4.7-5.9-8.5zm23-3.4c.6 0 1 .4 1 1v1c0 .3-.1.6-.4.8l-1.6 1.2v-4zm-3 .6-2.1 2.1c-.2.2-.4.3-.7.3h-4.1c-.3 0-.6-.2-.8-.4l-.6-.9c-.2-.3-.4-.5-.7-.6v-5.1h9zm-15-18.3v4.7h2v-6c0-1.3.8-2.4 2-2.8v8.8h2v-8.8c1.2.4 2 1.5 2 2.8v6h2v-4.7c2.8 1.6 4.6 4.5 4.9 7.7h-19.8c.3-3.2 2.1-6.1 4.9-7.7zm-8 10.7c0-.6.4-1 1-1h24c.6 0 1 .4 1 1s-.4 1-1 1h-24c-.6 0-1-.4-1-1zm12 3v5.1c-.3.2-.5.4-.7.6l-.6.9c-.2.3-.5.4-.8.4h-4.1c-.3 0-.5-.1-.7-.3l-2.1-2.1v-4.6zm-12.6 6.8c-.3-.2-.4-.5-.4-.8v-1c0-.6.4-1 1-1h1v4zm8.8 11.5 1 .4c2.4.9 5.1.9 7.5 0l1-.4c1.7-.6 3.3-1.7 4.5-3.1l4.3 1.8-7 7h-15.7l-1.6-8.1 1.5-.7c1.2 1.4 2.8 2.5 4.5 3.1zm-17.2 8.3c0-3.5 2.1-6.8 5.3-8.2l1.7 6.7-1.9 12.9h-5.1zm44 11.4h-12.6l1.9-1.9c.9-.9 1.1-2.4.5-3.5l1.6-1.6h3.6v-3h3v-4h1.6c.3.8.4 1.7.4 2.6z"/></svg>