<svg height="512" viewBox="0 0 64 64" width="512" xmlns="http://www.w3.org/2000/svg"><g id="Tool_Box" data-name="Tool Box"><path d="m57 33v26a2.006 2.006 0 0 1 -2 2h-46a2.006 2.006 0 0 1 -2-2v-26z" fill="#a7a9ac"/><path d="m59 15h-54a2 2 0 0 0 -2 2v16h58v-16a2 2 0 0 0 -2-2z" fill="#58595b"/><path d="m22 11a4 4 0 0 1 4-4h12a4 4 0 0 1 4 4v4h4v-4a8 8 0 0 0 -8-8h-12a8 8 0 0 0 -8 8v4h4z" fill="#ed1c24"/><path d="m43 49.047 1-2.047h6.65a5.99 5.99 0 0 0 -10.328-1.751 1.986 1.986 0 0 1 -1.552.751h-13.54a1.986 1.986 0 0 1 -1.552-.751 6 6 0 1 0 -.017 7.523 2.023 2.023 0 0 1 1.571-.772h13.538a1.986 1.986 0 0 1 1.552.751 5.99 5.99 0 0 0 10.328-1.751h-6.65zm-22.5 2.553h-3l-1.5-2.6 1.5-2.6h3l1.5 2.6z" fill="#006df0"/><path d="m7 33h50v3h-50z" fill="#808285"/><path d="m22 38v-8a2 2 0 0 0 -4 0v8z" fill="#ed1c24"/><path d="m46 38v-8a2 2 0 0 0 -4 0v8z" fill="#ed1c24"/><path d="m17.5 51.598h3l1.5-2.598h-6z" fill="none"/><path d="m17.5 46.402-1.5 2.598h6l-1.5-2.598z" fill="none"/><path d="m43 49.047.023-.047h-21.023l-1.5 2.6h-3l-1.5-2.6h-3a6.144 6.144 0 0 0 .04.725 6 6 0 0 0 10.618 3.047 2.023 2.023 0 0 1 1.574-.772h13.538a1.986 1.986 0 0 1 1.552.751 5.99 5.99 0 0 0 10.328-1.751h-6.65z" fill="#005ece"/><g fill="#231f20"><path d="m59 14h-12v-3a9.014 9.014 0 0 0 -9-9h-12a9.014 9.014 0 0 0 -9 9v3h-12a3.009 3.009 0 0 0 -3 3v16a1 1 0 0 0 1 1h3v25a3.009 3.009 0 0 0 3 3h46a3.009 3.009 0 0 0 3-3v-25h3a1 1 0 0 0 1-1v-16a3.009 3.009 0 0 0 -3-3zm-40-3a7.008 7.008 0 0 1 7-7h12a7.008 7.008 0 0 1 7 7v3h-2v-3a5 5 0 0 0 -5-5h-12a5 5 0 0 0 -5 5v3h-2zm22 0v3h-18v-3a3.009 3.009 0 0 1 3-3h12a3.009 3.009 0 0 1 3 3zm15 48a1 1 0 0 1 -1 1h-46a1 1 0 0 1 -1-1v-25h9v4a1 1 0 0 0 1 1h4a1 1 0 0 0 1-1v-4h18v4a1 1 0 0 0 1 1h4a1 1 0 0 0 1-1v-4h9zm-37-22v-7a1 1 0 0 1 2 0v7zm24 0v-7a1 1 0 0 1 2 0v7zm17-5h-13v-2a3 3 0 0 0 -6 0v2h-18v-2a3 3 0 0 0 -6 0v2h-13v-15a1 1 0 0 1 1-1h54a1 1 0 0 1 1 1z"/><path d="m50.65 50h-6.04l-.49-.96.5-1.04h6.03a1.028 1.028 0 0 0 .82-.42 1.01 1.01 0 0 0 .12-.91 6.991 6.991 0 0 0 -12.05-2.05.981.981 0 0 1 -.77.38h-13.54a.981.981 0 0 1 -.77-.38 7 7 0 0 0 -12.41 5.22 7.067 7.067 0 0 0 5.83 6.07 7.268 7.268 0 0 0 1.13.09 6.93 6.93 0 0 0 5.43-2.6 1.024 1.024 0 0 1 .79-.4h13.54a.981.981 0 0 1 .77.38 6.991 6.991 0 0 0 12.05-2.05 1.01 1.01 0 0 0 -.12-.91 1.028 1.028 0 0 0 -.82-.42zm-5.65 4a4.988 4.988 0 0 1 -3.9-1.87 2.957 2.957 0 0 0 -2.33-1.13h-13.54a3.05 3.05 0 0 0 -2.35 1.14 4.968 4.968 0 0 1 -4.69 1.8 5.04 5.04 0 0 1 -4.15-4.33 5 5 0 0 1 8.86-3.74 2.957 2.957 0 0 0 2.33 1.13h13.54a2.957 2.957 0 0 0 2.33-1.13 5 5 0 0 1 7.9.13h-5a1.012 1.012 0 0 0 -.9.56l-1 2.05a1 1 0 0 0 .01.89l1 1.96a1 1 0 0 0 .89.54h5a5 5 0 0 1 -4 2z"/><path d="m21.366 45.9a1 1 0 0 0 -.866-.5h-3a1 1 0 0 0 -.866.5l-1.5 2.6a1 1 0 0 0 0 1l1.5 2.6a1 1 0 0 0 .866.5h3a1 1 0 0 0 .866-.5l1.5-2.6a1 1 0 0 0 0-1zm-1.443 4.7h-1.846l-.922-1.6.922-1.6h1.846l.922 1.6z"/><path d="m38 48h-12a1 1 0 0 0 0 2h12a1 1 0 0 0 0-2z"/></g></g></svg>