<svg height="512" viewBox="0 0 64 64" width="512" xmlns="http://www.w3.org/2000/svg"><g id="Paint_Roller-2" data-name="Paint Roller"><path d="m3 3h38v56h-38z" fill="#e6e7e8"/><path d="m39 3v30a24 24 0 0 1 -24 24h-12v2h38v-56z" fill="#d1d3d4"/><path d="m13 41a2 2 0 0 0 4 0v-11a2 2 0 0 1 4 0v3a2 2 0 0 0 4 0v-7a2 2 0 0 1 4 0v4a2 2 0 0 0 4 0v-9h-20z" fill="#ed1c24"/><rect fill="#ed1c24" height="14" rx="2" width="40" x="11" y="7"/><path d="m49 7v6a6.018 6.018 0 0 1 -6 6h-32a2.006 2.006 0 0 0 2 2h36a2.006 2.006 0 0 0 2-2v-10a2.006 2.006 0 0 0 -2-2z" fill="#be161d"/><path d="m59 12h-8v4h5a1 1 0 0 1 1 1v9a1 1 0 0 1 -1 1h-17a2 2 0 0 0 -2 2v8h4v-5a1 1 0 0 1 1-1h17a2 2 0 0 0 2-2v-15a2 2 0 0 0 -2-2z" fill="#ffcd00"/><circle cx="15" cy="49" fill="#ed1c24" r="2"/><circle cx="23" cy="41" fill="#ed1c24" r="2"/><path d="m34 59a2 2 0 0 0 2 2h6a2 2 0 0 0 2-2v-18h-10z" fill="#58595b"/><path d="m32 37h14v4h-14z" fill="#006df0"/><path d="m9 12a1 1 0 0 0 -1 1v2a1 1 0 0 0 1 1h2v-4z" fill="#ffcd00"/><path d="m13 21h20v2h-20z" fill="#d51920"/><path d="m34 41h10v2h-10z" fill="#414042"/><g fill="#231f20"><path d="m59 11h-7v-2a3.009 3.009 0 0 0 -3-3h-7v-3a1 1 0 0 0 -1-1h-38a1 1 0 0 0 -1 1v56a1 1 0 0 0 1 1h30.18a3.01 3.01 0 0 0 2.82 2h6a3.009 3.009 0 0 0 3-3v-17h1a1 1 0 0 0 1-1v-4a1 1 0 0 0 -1-1h-4v-4h17a3.009 3.009 0 0 0 3-3v-15a3.009 3.009 0 0 0 -3-3zm-7 8v-2h4v9h-14v-4h7a3.009 3.009 0 0 0 3-3zm-3-11a1 1 0 0 1 1 1v10a1 1 0 0 1 -1 1h-36a1 1 0 0 1 -1-1v-10a1 1 0 0 1 1-1zm-22 15a3.009 3.009 0 0 0 -3 3v7a1 1 0 0 1 -2 0v-3a3 3 0 0 0 -6 0v11a1 1 0 0 1 -2 0v-19h18v8a1 1 0 0 1 -2 0v-4a3.009 3.009 0 0 0 -3-3zm6 35h-29v-54h36v2h-27a3.009 3.009 0 0 0 -3 3v2h-1a2.006 2.006 0 0 0 -2 2v2a2.006 2.006 0 0 0 2 2h1v2a3.01 3.01 0 0 0 2 2.82v19.18a3 3 0 0 0 6 0v-11a1 1 0 0 1 2 0v3a3 3 0 0 0 6 0v-7a1 1 0 0 1 2 0v4a3 3 0 0 0 6 0v-8h6v4h-1a3.009 3.009 0 0 0 -3 3v7h-4a1 1 0 0 0 -1 1v4a1 1 0 0 0 1 1h1zm-23-45v2h-1v-2zm33 46a1 1 0 0 1 -1 1h-6a1 1 0 0 1 -1-1v-17h8zm2-21v2h-12v-2zm15-9a1 1 0 0 1 -1 1h-17a2.006 2.006 0 0 0 -2 2v4h-2v-7a1 1 0 0 1 1-1h17a2.006 2.006 0 0 0 2-2v-9a2.006 2.006 0 0 0 -2-2h-4v-2h7a1 1 0 0 1 1 1z"/><path d="m15 46a3 3 0 1 0 3 3 3 3 0 0 0 -3-3zm0 4a1 1 0 1 1 1-1 1 1 0 0 1 -1 1z"/><path d="m23 38a3 3 0 1 0 3 3 3 3 0 0 0 -3-3zm0 4a1 1 0 1 1 1-1 1 1 0 0 1 -1 1z"/><path d="m14 11a1 1 0 0 0 1 1h27a1 1 0 0 0 0-2h-27a1 1 0 0 0 -1 1z"/><path d="m46 12h1a1 1 0 0 0 0-2h-1a1 1 0 0 0 0 2z"/></g></g></svg>